<svg id="Layer_1" data-name="Layer 1" xmlns="http://www.w3.org/2000/svg" xmlns:xlink="http://www.w3.org/1999/xlink" viewBox="0 0 4500 2500"><defs><style>.cls-1{fill:none;}.cls-2{fill:#aed3f0;}.cls-3{fill:#c3dcf3;}.cls-10,.cls-12,.cls-13,.cls-20,.cls-21,.cls-22,.cls-23,.cls-24,.cls-27,.cls-28,.cls-3,.cls-32,.cls-38,.cls-39,.cls-40,.cls-5,.cls-51,.cls-57,.cls-58,.cls-6,.cls-7,.cls-8,.cls-9{fill-rule:evenodd;}.cls-4{clip-path:url(#clip-path);}.cls-11,.cls-5,.cls-55,.cls-57,.cls-58,.cls-6{fill:#fff;}.cls-5{fill-opacity:0.45;}.cls-6{fill-opacity:0.55;}.cls-26,.cls-7{fill:#cf8c56;}.cls-31,.cls-42,.cls-8{fill:#05837c;}.cls-9{fill:#c4406b;}.cls-10{fill:#ec6198;}.cls-12{fill:#ebd063;}.cls-13{fill:#44ae9e;}.cls-14,.cls-17{fill:#f6b2cd;}.cls-15,.cls-16,.cls-17,.cls-18,.cls-19,.cls-34,.cls-35,.cls-36,.cls-37,.cls-41,.cls-42,.cls-54,.cls-55,.cls-56{isolation:isolate;font-family:Arial-BoldMT, Arial;font-weight:700;}.cls-15,.cls-17,.cls-19{font-size:165.24px;}.cls-15,.cls-18,.cls-25{fill:#f9f2d4;}.cls-16,.cls-18{font-size:232.63px;}.cls-16,.cls-19,.cls-30{fill:#a6dcd4;}.cls-20,.cls-43{fill:#263c7a;}.cls-21,.cls-46{fill:#d9effb;}.cls-22{fill:url(#linear-gradient);}.cls-23{fill:url(#linear-gradient-2);}.cls-24{fill:url(#linear-gradient-3);}.cls-27{fill:#d3a75d;}.cls-28{fill:#3f9d8f;}.cls-29{fill:#a43358;}.cls-32,.cls-41,.cls-52{fill:#ea487c;}.cls-33{fill:#4e659b;}.cls-34{font-size:414.35px;}.cls-34,.cls-35,.cls-36,.cls-56{fill:#709ad2;}.cls-35{font-size:648.27px;}.cls-36{font-size:475.29px;}.cls-37{font-size:508.35px;fill:#719ad2;}.cls-38,.cls-44{fill:#4067b1;}.cls-39{fill:#2d4584;}.cls-40,.cls-48{fill:#8ebbe5;}.cls-41{font-size:188.73px;}.cls-42{font-size:189.97px;}.cls-45{fill:#2e4b8d;}.cls-47{fill:url(#linear-gradient-4);}.cls-49{fill:#5f92d3;}.cls-50{fill:url(#linear-gradient-5);}.cls-51{fill:#96d3f4;}.cls-53{fill:#bce5f8;}.cls-54,.cls-55{font-size:146.67px;}.cls-54{fill:#1f2b55;}.cls-56{font-size:506.92px;}.cls-57{fill-opacity:0.4;}</style><clipPath id="clip-path"><rect class="cls-1" x="0.49" width="4499.5" height="2499.75"/></clipPath><linearGradient id="linear-gradient" x1="1290.49" y1="1792.57" x2="1291.68" y2="1792.57" gradientTransform="matrix(115.21, -531.84, -531.84, -115.21, 805216.02, 895202.89)" gradientUnits="userSpaceOnUse"><stop offset="0" stop-color="#1e719e" stop-opacity="0"/><stop offset="1" stop-color="#1e719e"/></linearGradient><linearGradient id="linear-gradient-2" x1="1291.24" y1="1793.34" x2="1292.42" y2="1793.34" gradientTransform="matrix(31.19, -384.16, -384.16, -31.19, 649623.41, 554187.65)" xlink:href="#linear-gradient"/><linearGradient id="linear-gradient-3" x1="1292.11" y1="1794.42" x2="1293.3" y2="1794.42" gradientTransform="matrix(6.04, -279.88, -279.88, -6.04, 495742.36, 374449.72)" xlink:href="#linear-gradient"/><linearGradient id="linear-gradient-4" x1="1290.47" y1="1791.82" x2="1291.65" y2="1791.82" gradientTransform="matrix(273.73, -777.9, -777.9, -273.73, 1042475.2, 1495136.35)" gradientUnits="userSpaceOnUse"><stop offset="0" stop-color="#fff" stop-opacity="0"/><stop offset="1" stop-color="#fff"/></linearGradient><linearGradient id="linear-gradient-5" x1="1290.47" y1="1791.56" x2="1291.65" y2="1791.56" gradientTransform="matrix(232.02, -822.68, -822.68, -232.02, 1176716.29, 1478706.84)" xlink:href="#linear-gradient-4"/></defs><rect class="cls-2" x="0.5" width="4499.5" height="2499.75"/><path class="cls-3" d="M4499.5,2500H2017.1c133.27-117.14,274.67-220.48,311.22-243,631.63-389,1121.77-72.54,1754.93-263.47,177.81-53.61,312.49-142.55,416.25-259.5ZM4004.38.25H0V1443.33C521.24,1318.45,1285.23,661.9,1621,490.08,2104.42,242.66,2638.85,295.47,3157.1,230.43c42.89-5.38,85.22-14.68,127.81-22.1,233.76-40.76,466.76-93.66,684.72-190.3,8.09-3.59,15.24-9.06,23.24-12.8C3996.66,3.47,4000.5,1.83,4004.38.25Z"/><rect class="cls-1" x="0.49" width="4499.5" height="2499.75"/><g class="cls-4"><polygon class="cls-5" points="2586.34 803.73 4216.75 -181.51 4229.4 -173.97 2598.98 811.28 2586.34 803.73"/><polygon class="cls-5" points="2703.66 873.75 4334.08 -111.49 4346.72 -103.94 2716.3 881.3 2703.66 873.75"/><polygon class="cls-5" points="2820.98 943.78 4451.4 -41.46 4464.04 -33.92 2833.63 951.33 2820.98 943.78"/><polygon class="cls-5" points="2938.3 1013.8 4568.72 28.56 4581.37 36.11 2950.95 1021.35 2938.3 1013.8"/><polygon class="cls-5" points="3055.63 1083.83 4686.04 98.58 4698.69 106.13 3068.27 1091.37 3055.63 1083.83"/><polygon class="cls-5" points="3172.95 1153.85 4803.37 168.61 4816.01 176.16 3185.59 1161.4 3172.95 1153.85"/><polygon class="cls-5" points="3290.27 1223.88 4920.69 238.63 4933.34 246.18 3302.92 1231.42 3290.27 1223.88"/><polygon class="cls-6" points="2565.69 661.72 2574.74 656.25 3555.17 1241.42 3546.12 1246.89 2565.69 661.72"/><polygon class="cls-6" points="2672.13 597.4 2681.18 591.93 3661.61 1177.1 3652.56 1182.57 2672.13 597.4"/><polygon class="cls-6" points="2778.57 533.08 2787.62 527.61 3768.05 1112.78 3759 1118.25 2778.57 533.08"/><polygon class="cls-6" points="2885.01 468.76 2894.06 463.29 3874.49 1048.46 3865.44 1053.93 2885.01 468.76"/><polygon class="cls-6" points="2991.45 404.44 3000.5 398.97 3980.93 984.14 3971.88 989.61 2991.45 404.44"/><polygon class="cls-6" points="3097.89 340.12 3106.94 334.65 4087.36 919.82 4078.31 925.29 3097.89 340.12"/><polygon class="cls-6" points="3204.33 275.8 3213.38 270.33 4193.81 855.5 4184.75 860.97 3204.33 275.8"/><polygon class="cls-6" points="3310.77 211.48 3319.82 206.01 4300.24 791.18 4291.19 796.65 3310.77 211.48"/><polygon class="cls-6" points="3417.21 147.16 3426.26 141.69 4406.68 726.86 4397.63 732.33 3417.21 147.16"/><polygon class="cls-6" points="3523.65 82.84 3532.7 77.37 4513.12 662.54 4504.07 668.01 3523.65 82.84"/><polygon class="cls-6" points="3630.08 18.52 3639.13 13.05 4619.56 598.22 4610.51 603.69 3630.08 18.52"/><polygon class="cls-6" points="3736.52 -45.8 3745.57 -51.27 4726 533.9 4716.95 539.37 3736.52 -45.8"/><polygon class="cls-6" points="3842.97 -110.12 3852.02 -115.59 4832.44 469.58 4823.39 475.05 3842.97 -110.12"/><polygon class="cls-6" points="3949.4 -174.44 3958.45 -179.91 4938.88 405.26 4929.83 410.73 3949.4 -174.44"/><path class="cls-7" d="M3880,182.58c-8.42-5-23.14-4.28-32.85,1.66l-268.33,58.35c-2.22,2.76,0,121.18,3.93,122l270.22,161.52c8.42,5,23.14,4.28,32.85-1.66L4147.84,364c9.71-5.95,8.72-128,8.36-126.11Z"/><path class="cls-8" d="M4206,386.85c-6-3.57-16.43-3.05-23.33,1.18l-190.62,10,4.47,104c-6.9,4.22-7.65,10.55-1.67,14.13l192,114.72c6,3.58,16.44,3,23.33-1.17l190.87-118c2.36-15.25,1.09-115.23,1.09-115.23Z"/><path class="cls-8" d="M3531.46,393.92c-8.42-5-23.14-4.28-32.85,1.66L3232.4,450.79c-5.32,1.39-.1,124.68,1.81,125.17l270.22,161.52c8.42,5,23.14,4.29,32.85-1.66L3807.13,573c4.1-5.26.17-104.75,1.12-123.31Z"/><path class="cls-9" d="M3977.81,501.83c-6-3.57-16.44-3-23.34,1.18L3744.4,548.56c-1.49,3.17,3.27,80.28,4.16,80.28l210,117c6,3.57,16.44,3,23.34-1.18l171-108.24c2.41-1.36,2.59-85.42,2.45-90.15Z"/><path class="cls-9" d="M3183,605.27c-8.42-5-23.14-4.29-32.85,1.66l-268,57.12c-4.24,4,2.26,105.22,3.61,123.26l270.22,161.52c8.43,5,23.15,4.28,32.86-1.66l262.06-160.49c9.71-5.95,6.54-24,8-33.36l.88-91.39Z"/><path class="cls-7" d="M3710.94,687.1c-6-3.58-16.43-3.05-23.33,1.18L3496.8,698.56c.42,13,1.59,78.56,2.69,109.94a14.63,14.63,0,0,0,7.1,12l185.15,110.66c6,3.58,16.44,3,23.33-1.17l186.15-114c3.15-1.93,3.78-25.45,5.21-51.84,1.71-31.49,3.68-66.65.43-68.59Z"/><path class="cls-10" d="M3183.81,494.39c-8.42-5-23.14-4.29-32.85,1.66L2888.9,656.54c-9.71,6-10.77,14.86-2.35,19.89l270.22,161.51c8.42,5,23.14,4.29,32.85-1.65L3451.69,675.8c9.71-5.95,10.76-14.86,2.34-19.9Z"/><ellipse class="cls-11" cx="2937" cy="666.36" rx="19.69" ry="13.78"/><path class="cls-12" d="M3711.79,576.23c-6-3.58-16.44-3.05-23.33,1.17l-186.15,114c-6.9,4.23-7.65,10.56-1.67,14.13l192,114.73c6,3.58,16.44,3,23.33-1.18l186.15-114c6.9-4.22,7.65-10.55,1.67-14.13Z"/><ellipse class="cls-11" cx="3533.4" cy="697.85" rx="10.98" ry="9.59"/><path class="cls-13" d="M3532.31,283.05c-8.42-5-23.14-4.29-32.85,1.66L3237.4,445.2c-9.71,5.95-10.76,14.86-2.34,19.89L3505.27,626.6c8.43,5,23.15,4.29,32.86-1.65l262.06-160.49c9.71-5.95,10.76-14.86,2.34-19.9Z"/><ellipse class="cls-11" cx="3285.5" cy="456.47" rx="19.69" ry="13.78"/><path class="cls-10" d="M3959.34,426.1c-6-3.57-16.44-3-23.33,1.18l-186.15,114c-6.9,4.22-7.65,10.56-1.67,14.13l191.95,114.73c6,3.57,16.43,3,23.33-1.18l186.15-114c6.9-4.23,7.65-10.56,1.66-14.13Z"/><ellipse class="cls-11" cx="3787.04" cy="546.32" rx="10.98" ry="9.59"/><path class="cls-12" d="M3880.81,71.7c-8.42-5-23.14-4.29-32.85,1.66L3585.9,233.85c-9.71,6-10.76,14.86-2.34,19.89l270.21,161.52c8.43,5,23.15,4.28,32.86-1.66l262.06-160.49c9.71-6,10.76-14.86,2.34-19.9Z"/><ellipse class="cls-11" cx="3636.28" cy="246.65" rx="19.69" ry="13.78"/><path class="cls-13" d="M4206.89,276c-6-3.58-16.44-3.05-23.33,1.18l-186.15,114c-6.9,4.23-7.65,10.56-1.67,14.13L4187.69,520c6,3.58,16.43,3,23.33-1.18l186.15-114c6.9-4.22,7.65-10.55,1.66-14.13Z"/><ellipse class="cls-11" cx="4037.17" cy="400.84" rx="10.98" ry="9.59"/><path class="cls-14" d="M3202.78,685.16,3227.85,701l-85.41,52.89q-12.83-9.84-18.61-22.17t-6.36-38.28q-.54-20.94-2.85-27.07a28,28,0,0,0-11.49-13.54,36.67,36.67,0,0,0-18.26-6.06,29.35,29.35,0,0,0-16.95,4.43q-7.62,4.72-7.05,10.73t11.71,13.9l-27,13.34q-20.12-15.42-18.37-28.63t18.91-23.84a73.2,73.2,0,0,1,40.8-11.22q22,.43,38.7,11a55.68,55.68,0,0,1,15,13.34,50.79,50.79,0,0,1,8.25,17.41q1.83,6.69,2,21.22t.94,18.87a28.48,28.48,0,0,0,2.52,7.82Zm3.31-17.43,20.41-16.6q11.11,5.61,21.34,5.88t17.25-4.07q7.54-4.68,6.36-11.87t-11.93-14a44.47,44.47,0,0,0-21.08-7.13q-10.89-.71-18,3.7a39.53,39.53,0,0,0-9.16,8.2L3192,616.3q10.17-5.94,10.33-12.35t-8.2-11.68a30.08,30.08,0,0,0-15.14-4.79,24.88,24.88,0,0,0-14.38,3.61q-6.24,3.87-5.85,9.64t8.64,12.18l-26.68,11.24q-10.44-9.51-13.34-17.26a18.77,18.77,0,0,1,1.17-15.74q4.08-8,14.58-14.5,17.94-11.11,41.46-9.82,19.29,1,32.36,9.27,18.53,11.7,11.29,30a62.32,62.32,0,0,1,29.08-3.48,65.17,65.17,0,0,1,28.36,9.71q18.54,11.71,19.37,27.52T3287.65,667q-17.27,10.68-39.61,10.78A89.55,89.55,0,0,1,3206.09,667.73Z"/><text class="cls-15" transform="matrix(0.76, -0.47, 0.85, 0.53, 3679.26, 762.49)">14</text><text class="cls-16" transform="matrix(0.76, -0.47, 0.85, 0.53, 3486.52, 545.28)">58</text><text class="cls-17" transform="matrix(0.76, -0.47, 0.85, 0.53, 3926.82, 612.37)">16</text><text class="cls-18" transform="matrix(0.76, -0.47, 0.85, 0.53, 3835.02, 333.93)">21</text><text class="cls-19" transform="matrix(0.76, -0.47, 0.85, 0.53, 4174.36, 462.24)">54</text><path class="cls-20" d="M1361.07,1490.78c-11.64-7-52.66,6.74-91.55,30.55L146.75,2122.27c-24.47,14.23-18.27,59.32-6.63,66.27l373.39,223.18c11.63,7,16.34,18.13,55.23-5.68L1751.39,1741c6-13.76,9.54-51.19-2.09-58.14Z"/><path class="cls-21" d="M1369.56,1455.24c-11.63-7-52.66,6.74-91.54,30.55l-1119.66,627c-38.88,23.81-21.38,33.29-9.75,40.24L522,2376.18c11.64,7,16.35,18.13,55.23-5.68l1149.86-651c38.88-23.81,27.5-34.16,15.86-41.12Z"/><path class="cls-22" d="M293.57,2239.65l30.29-136.47,491.89-62.38,23.36,70.46-14.25,119.07L577.23,2370.51c-38.88,23.82-43.59,12.65-55.22,5.68Z"/><path class="cls-23" d="M814,1989.35l-7.28,19.43,32.43,102.48L823.8,2232.08l325.8-185.35,24.31-113.28Z"/><path class="cls-24" d="M1166.17,1844.24l7.74,89.21L1146.57,2049l333.57-186.7L1507.33,1754Z"/><polygon class="cls-12" points="982.26 1317.53 1237.74 1170.29 1508.41 1317.34 1252.92 1464.58 982.26 1317.53"/><path class="cls-25" d="M1279.39,1359.24l-19,11.79-79.45-50.17q.38,13.29-8.59,25.32l-19.13-12.09q4.72-6.31,5.94-16.48a23.91,23.91,0,0,0-5.61-18.53l15.44-9.57Zm73.14-69.78,19.58,12.37-66.71,41.3q-10-7.67-14.54-17.31t-5-29.9q-.41-16.37-2.22-21.14a21.9,21.9,0,0,0-9-10.58,28.39,28.39,0,0,0-14.26-4.72,22.86,22.86,0,0,0-13.23,3.45q-6,3.69-5.51,8.38t9.14,10.85l-21.06,10.42q-15.7-12-14.35-22.36t14.77-18.62a57.25,57.25,0,0,1,31.87-8.77q17.19.36,30.23,8.59a43.55,43.55,0,0,1,11.74,10.43,39.8,39.8,0,0,1,6.44,13.59q1.42,5.22,1.56,16.58a122.35,122.35,0,0,0,.75,14.73,22.12,22.12,0,0,0,2,6.11Z"/><path class="cls-26" d="M1157.48,1305.52a26.87,26.87,0,0,0-4-6.44l15.44-9.57,110.42,69.73-8.68,5.37-103.32-65.23Zm.26,19.19c0,.9-.08,1.83-.18,2.75a43.78,43.78,0,0,1-1.76,8.28l-2.6-1.65A29,29,0,0,0,1157.74,1324.71Zm22.06,6.3c-.13.53-.29,1.07-.45,1.6,0-.63,0-1.26,0-1.89Zm35.76-56.58a13.26,13.26,0,0,1-.14-4.21q1.36-10.32,14.77-18.62a57.25,57.25,0,0,1,31.87-8.77q17.19.36,30.23,8.59a43.55,43.55,0,0,1,11.74,10.43,39.8,39.8,0,0,1,6.44,13.59q1.42,5.22,1.56,16.58a122.35,122.35,0,0,0,.75,14.73,22.12,22.12,0,0,0,2,6.11l37.79-23.4,19.58,12.37-8.68,5.37-12.49-7.88-37.78,23.4a21.93,21.93,0,0,1-2-6.1q-.6-3.39-.75-14.74t-1.57-16.58a39.58,39.58,0,0,0-6.44-13.6,43.69,43.69,0,0,0-11.74-10.42q-13.07-8.23-30.23-8.58a57.14,57.14,0,0,0-31.87,8.76Q1219,1267.42,1215.56,1274.43Zm27.43.31q2.16,3.4,7.84,7.42l-8.21,4.06a9.47,9.47,0,0,1-2.5-5Q1239.78,1277.67,1243,1274.74Z"/><path class="cls-27" d="M1507.26,1755.72l-252.48,149.61-1.85-443.26,255.48-147.23Z"/><path class="cls-7" d="M985.3,1750.62l269.82,153.88-1.72-442.43L985,1314Z"/><polygon class="cls-13" points="648.83 1242.54 904.32 1095.31 1174.98 1242.36 919.5 1389.6 648.83 1242.54"/><path class="cls-28" d="M1173.83,1935.69,921.35,2085.3l-1.54-697.48,255.48-147.23Z"/><path class="cls-8" d="M651.87,1930.59l269.82,153.88-1.4-696.65L651.83,1239.73Z"/><polygon class="cls-10" points="315.4 1568.21 570.89 1420.97 841.56 1568.02 586.07 1715.26 315.4 1568.21"/><polygon class="cls-10" points="315.4 1568.21 570.89 1420.97 841.56 1568.02 586.07 1715.26 315.4 1568.21"/><path class="cls-14" d="M598.26,1614.32l-22.13-14L535.5,1625.5,517,1613.85l-26.77-70.77,16-9.91L576,1577.24l12.32-7.64,18.53,11.71-12.32,7.62,22.13,14Zm-40.66-25.68L520,1564.9l14.76,37.87Zm52.47-17,16.78-13.12a37.11,37.11,0,0,0,16.1,4.15q8.16.16,13.38-3.07,6-3.69,4.72-9.63c-.82-4-4.83-8.22-12-12.78q-10.12-6.37-19.29-7T614,1533.54q-8.19,5.07-6.67,14.16l-17.92,8-47.48-42.19,50.31-31.16L612,1494.82,576.08,1517l15.7,13.66a23.83,23.83,0,0,1,9.48-10.29q12.66-7.85,31.67-6.85a72.19,72.19,0,0,1,35.28,11.26q13.57,8.58,17.12,19.72,4.88,15.17-12.33,25.83a58.22,58.22,0,0,1-30.59,8.72A70,70,0,0,1,610.07,1571.63Z"/><path class="cls-29" d="M524.48,1576.35l-4.48-2.84,14.76,37.88,22.82-14.14-6.87-4.34-15.93,9.86Zm92.2,26.56-6.9,4.26-15.25-9.63,6.9-4.27ZM492.91,1550l-2.64-7,16-9.91L576,1577.24l12.32-7.64,18.53,11.71-6.89,4.25-11.65-7.35L576,1585.85l-69.76-44.06Zm167.19,6a10,10,0,0,1,.94,2.54q1.23,5.94-4.73,9.63-5.22,3.24-13.37,3.07a36.93,36.93,0,0,1-16.1-4.15l-9.69,7.57a70.66,70.66,0,0,1-7.08-3.06l16.78-13.12a37.11,37.11,0,0,0,16.1,4.15q8.16.16,13.38-3.07A11.2,11.2,0,0,0,660.1,1556Zm-78.24-34,9.92,8.63a23.83,23.83,0,0,1,9.48-10.29q12.66-7.85,31.67-6.85a72.19,72.19,0,0,1,35.28,11.26q13.57,8.58,17.12,19.72a19.19,19.19,0,0,1,.56,10.71q-.24-1.05-.57-2.1-3.55-11.14-17.12-19.71a72.16,72.16,0,0,0-35.29-11.27q-19-1-31.67,6.85a23.81,23.81,0,0,0-9.47,10.29l-15.7-13.64Zm-34.23-3.47-5.7-5.08,50.31-31.16L612,1494.82l-6.89,4.27L592.23,1491Z"/><path class="cls-30" d="M847.08,1265.18a50.63,50.63,0,0,1-20.22.65,46.5,46.5,0,0,1-16.59-6.29q-12.3-7.76-12.58-17.63t14-18.72a54.47,54.47,0,0,1,30-8.54,52.94,52.94,0,0,1,28.15,8q7.65,4.83,10,10.82a13.42,13.42,0,0,1-1,12,60.14,60.14,0,0,1,23.29-1,53.94,53.94,0,0,1,20.58,7.61q15.22,9.63,16,21.07T925,1293.6a60.81,60.81,0,0,1-30.43,9,62,62,0,0,1-36.14-9.53q-8.92-5.62-12.4-12.82T847.08,1265.18Zm28,15a37.4,37.4,0,0,0,17.61,6.07c5.94.4,10.91-.66,14.93-3.14s5.62-5.43,5.07-9-3.78-7.22-9.68-10.95a34.29,34.29,0,0,0-16.35-5.41q-8.61-.51-14.64,3.22-7,4.3-5.07,9.79T875.13,1280.18Zm3.21-71.33-19.58-12.36,65.08-40.3,15.3,9.65q.72,10.53,8.82,26.07a126.39,126.39,0,0,0,22.22,29.92,158.84,158.84,0,0,0,28.75,23.53l-18.35,11.36a159.24,159.24,0,0,1-38-34.63q-15.69-20-21-40Zm-48.56,40.49a25.81,25.81,0,0,0,13.05,4.21,21,21,0,0,0,12.09-3.08q5.42-3.35,5.1-7.61c-.2-2.85-2.41-5.59-6.61-8.25a25.16,25.16,0,0,0-12.71-4,20.8,20.8,0,0,0-12.06,3c-3.66,2.26-5.37,4.83-5.13,7.68S825.83,1246.84,829.78,1249.34Z"/><path class="cls-31" d="M867.9,1272.83q-3.55,3.47-2.12,7.57,1.9,5.47,8.13,9.4a37.44,37.44,0,0,0,17.61,6.09q8.9.58,14.93-3.16t5.06-9a8.52,8.52,0,0,0-1-2.87,14.49,14.49,0,0,1-2.83,2.24c-4,2.48-9,3.54-14.93,3.14a37.4,37.4,0,0,1-17.61-6.07A19.92,19.92,0,0,1,867.9,1272.83Zm11.46-27.47a60.12,60.12,0,0,1,22.84-.9,53.94,53.94,0,0,1,20.58,7.61q15.22,9.63,16,21.07a16.35,16.35,0,0,1-1.43,7.88q-1.71-10.44-15.78-19.32a53.94,53.94,0,0,0-20.58-7.61,60.14,60.14,0,0,0-23.29,1A13.62,13.62,0,0,0,879.36,1245.36Zm-34.81,29.72c.44-.08.87-.18,1.31-.27a21.66,21.66,0,0,0-1,2A13.13,13.13,0,0,1,844.55,1275.08Zm-19.59-30a7,7,0,0,0-2.68,5.86q.36,4.29,6.28,8a25.83,25.83,0,0,0,13,4.23,21.12,21.12,0,0,0,12.1-3.09c3.61-2.23,5.31-4.78,5.1-7.61a7.35,7.35,0,0,0-1.49-3.79,16.3,16.3,0,0,1-2.39,1.77,21,21,0,0,1-12.09,3.08,25.81,25.81,0,0,1-13.05-4.21A16.76,16.76,0,0,1,825,1245.07ZM865.85,1201l-7.09-4.47,65.08-40.3,15.3,9.65q.72,10.53,8.82,26.07a126.39,126.39,0,0,0,22.22,29.92,158.84,158.84,0,0,0,28.75,23.53l-8.1,5A167.47,167.47,0,0,1,969,1231.46a126.39,126.39,0,0,1-22.22-29.92q-8.1-15.52-8.82-26.07l-15.3-9.66ZM798,1244.8a16.54,16.54,0,0,1-.35-2.89q-.27-9.89,14-18.72a54.47,54.47,0,0,1,30-8.54,52.94,52.94,0,0,1,28.15,8q7.65,4.83,10,10.82a13.31,13.31,0,0,1-.65,11.39,15,15,0,0,0-.57-1.76q-2.38-6-10-10.83a53.14,53.14,0,0,0-28.15-8,54.54,54.54,0,0,0-30,8.55Q801.16,1238.58,798,1244.8Z"/><path class="cls-32" d="M840.4,2115.66,587.92,2265.27l-1.85-550L841.56,1568Z"/><path class="cls-9" d="M318.44,2110.56l269.82,153.88-1.71-549.18-268.46-148.1Z"/><path class="cls-33" d="M157.22,537.69l41.34-30.48c8.25,2.91,24.84,6.92,24.84,6.92s20.47-11.55,23.12-18.05c5.89-14.43,8.63-17,9.37-52-10.3,22.93-23,17-39.15,26.5q-26.42,15.52-46.36-.21t-21.21-59a176.93,176.93,0,0,1,18.09-84.59q19.41-39.51,50.7-57.9c22.69-13.34,73.44-14,88.68.72s-8.16,50-6.6,103.25c1.59,54.2,21.21,100.39,6.76,133.3s-34.43,68.37-58.74,82.66c-17.51,10.29-57.31-2-68.46-8S161,560.44,157.22,537.69Zm238.7-373.44c21.68-12.75,75.37-11.06,88.18,2.26,15.26,15.71,3.15,72.18,4.8,128.4s.29,100.59-13.65,133.74c-11.51,27.35-20.45,37.91-42.13,50.66s-68-.29-81.94-14.63-21.81-50-23.48-106.85q-2.46-83.71,18.44-133.45Q363.42,183.36,395.92,164.25ZM250.65,356.44q-.81-27.51-10.79-37.06c-6.66-6.38-25.57,110.27-17,105.26q12.36-7.27,20.45-25.2T250.65,356.44ZM411.31,209.82c-4.14-2-39.74,87.45-38.72,122.23s3.05,57.91,6.08,69.36,6.61,18.16,10.76,20.11,8.81,1.4,14-1.65,9.76-8,13.7-14.74S424,388.65,425.9,376q3.78-24.44,2.25-76.62T422.08,230Q417.54,212.84,411.31,209.82Z"/><text class="cls-34" transform="matrix(0.75, -0.44, 0.03, 1, 191.34, 621.8)">90</text><path class="cls-33" d="M486.34,957.78,551,910.1c6.28,3.12,46.1,19.83,46.1,19.83s22.64-11.72,28.93-37.24c5.85-23.69,14.09-30.1,15.23-84.84-16.11,35.86-36.51,30.08-61.82,45q-41.31,24.28-72.52-.33t-33.2-92.33q-2.07-70.54,28.3-132.35t79.33-90.57c35.5-20.88,106.39-13.17,130.22,9.83s-4.25,69.51-1.8,152.83c2.49,84.8,33.93,166.66,11.31,218.15s-56.23,101.2-94.28,123.57c-27.38,16.11-88-7-105.46-16.4S492.25,993.36,486.34,957.78Zm443.27-95.73-65-17.6L856,551.19c-12.06,22.86-21,91.25-21,91.25s-39.78-7.58-64.91-14.69l-2.37-80.69q25.95-26.84,55.8-76.74t40.09-99.05l54.45-32,62.79,18.4ZM632.51,674.21q-1.26-43-16.88-58c-10.42-10-70,154.51-60.67,163.3s20.67,9.24,34,1.38q19.34-11.37,32-39.42T632.51,674.21Z"/><text class="cls-35" transform="matrix(0.75, -0.44, 0.03, 1, 529.76, 1095.61)">91</text><path class="cls-33" d="M4221.31,1425.51l-33.69,65.93c-6.79,1.84-58.55-17.93-58.55-17.93s-37.21,36.61-27.68,31c20.55-12.09,35.5-6.83,53.71,0,27,10.2,60.88,17.9,67.46,50,8.95,43.75-15.53,74.56-23.12,116.25-6,33-34.85,85.36-59,99.57-25.9,15.24-87.69-20.3-105.16-37.17s-27.1-55.68-28.89-116.46q-2.74-93.49,22.13-150.11t66.54-81.14c19.5-11.45,34.88-11.41,49.05-6.77C4167.18,1386.32,4217,1400,4221.31,1425.51Zm-126.2,131.55c-9.46,5.56-3.35,128.69,6.1,123.14q13.66-8,22.35-27.54t7.74-51.75c-.65-22.11-12.44,6.42-19.27,0S4104.91,1551.3,4095.11,1557.06Zm107.47-167-1.77-60.54,168.24-98.93,63.69,31.15c-13.35,26.25-27.83,47.63-41.19,89.94s-41.2,122-47.61,164.52-34.5,127.69-33.5,157.62l-65.29-29.15q-.85-71.23,17.75-156.74c12.39-57,22.94-86,44.92-138.07l-40.71,69.81Z"/><text class="cls-36" transform="matrix(0.75, -0.44, 0.03, 1, 4059.5, 1821.48)">67</text><path class="cls-33" d="M3460.54,1522.55,3462,1450c16.79,7.37,41.8-20.13,31.07-14.34-7.07,3.82-23,8.15-29.78,15.11l-34.71-29.6c3.09-22.73,6.55-45.81,4.83-47.35-8.84-7.94-22.17-9-34.31-9.45s-24.81,3.26-24.81,3.26-1.6,28.14-1.43,46.87l-60.43,22.14q-23.64-18.75-30.22-34c-4.4-10.17-6.85-84.88-.69-95.39s30.87,51.33,36.35,35.8c12.11-34.26,47.4-77.31,91.64-64.17,29.15,1.34,57,47.2,76.68,58,28,15.38,63.73-9.2,52.78,14.85,20.41-6.74,36.35,19.26,59.86,21.43s22.64,29.59,41.93,40.18c14.3,7.86,34.8-12.62,42.13-3.35,7,8.88,1.13,47.44,1.75,57.6q1.89,31.19-39.34,53.41-39.09,21.06-89.72,21.23T3460.54,1522.55ZM3879,1389.14l-64.18-35.26L3697,1417.37l-53.52-29.4-77.63-178.59.68-74,58.35,23.27L3814,1267l19.41-19.62,67.83-15.7.56,49.15-30.35,18.32,60-12.55,1,73.79Zm-136.23-87.24-46.53-7.14-44.13-30.29,41.28,61.11Z"/><text class="cls-37" transform="matrix(0.79, -0.43, 0.88, 0.48, 3530.04, 1503.42)">34</text><path class="cls-38" d="M2943.76,1457.59c-13.85-8.37-35-9.62-47.29-2.81l-711.7,355.52c-12.24,6.82-6.33,57.15,7.52,65.51l971.49,586.61c13.85,8.37,35,9.62,47.3,2.8l707.08-393.51c12.24-6.82,11.83-58.58-2-67Z"/><path class="cls-39" d="M2942.84,1415.62c-13.85-8.36-35-9.62-47.29-2.8l-707.08,393.51c-12.25,6.82-10.95,19.15,2.9,27.51l971.49,586.62c13.85,8.36,35,9.62,47.3,2.8l707.08-393.52c12.24-6.81,10.94-19.14-2.91-27.5Z"/><path class="cls-40" d="M2944.75,1457.25c-12.85-7.76-32.06-9.19-42.86-3.18L2278.59,1801c-10.8,6-9.13,17.2,3.72,25l901.57,544.39c12.85,7.76,32.06,9.19,42.86,3.17L3850,2026.59c10.8-6,9.13-17.19-3.72-24.95Z"/><path class="cls-21" d="M2951.16,1535.45c-16.5-10.25-41.91-11.77-56.71-3.38l-494.26,279.82c-14.8,8.38-13.42,23.5,3.08,33.75l196.05,121.71c16.5,10.24,41.91,11.76,56.72,3.38l494.25-279.83c14.81-8.38,13.42-23.5-3.08-33.75Z"/><path class="cls-38" d="M2809,1662c1.48-18.93,14-37.48,37.42-51.42,48.43-28.83,125.17-27.13,171.28,3.78s44.24,79.4-4.19,108.23c-37.15,22.13-91,26.27-134.89,13l13.62-23.72c30,10.13,67.94,7.71,93.83-7.7,32.5-19.36,33.77-51.93,2.81-72.67s-82.49-21.9-115-2.54c-15.78,9.39-24.19,21.9-25.14,34.66Z"/><path class="cls-21" d="M3246.68,1727.94c-16.5-10.25-41.91-11.76-56.72-3.38l-494.25,279.82c-14.81,8.39-13.42,23.51,3.08,33.75l196,121.71c16.51,10.24,41.92,11.76,56.72,3.38l494.26-279.83c14.8-8.38,13.42-23.5-3.08-33.74Z"/><path class="cls-38" d="M3505,1925.69c-2.69-1.61-6.79-1.79-9.16-.4l-445.1,261.07c-2.37,1.39-2.11,3.82.57,5.43l9.74,5.84c2.69,1.61,6.79,1.79,9.15.41L3515.33,1937c2.36-1.39,2.12-3.83-.57-5.44Z"/><path class="cls-38" d="M3549.08,1952.11c-2.68-1.61-6.79-1.78-9.16-.39l-445.1,261.06c-2.37,1.39-2.11,3.82.58,5.43l9.74,5.85c2.68,1.61,6.78,1.79,9.15.4l445.1-261.07c2.37-1.39,2.12-3.82-.57-5.43Z"/><path class="cls-38" d="M3593.15,1978.55c-2.69-1.62-6.8-1.79-9.16-.4l-445.11,261.06c-2.36,1.39-2.11,3.83.58,5.44l9.74,5.84c2.69,1.61,6.78,1.79,9.15.4l445.1-261.06c2.37-1.39,2.12-3.83-.56-5.44Z"/><path class="cls-38" d="M3479,2097.74c-2.68-1.61-6.78-1.79-9.15-.4L3183,2265.64c-2.37,1.39-2.11,3.82.58,5.43l9.74,5.84c2.68,1.61,6.78,1.79,9.15.41L3489.36,2109c2.37-1.38,2.11-3.82-.58-5.43Z"/><path class="cls-38" d="M3169.8,1783.47l14,23.8a90.23,90.23,0,0,0-17.7,8c-32.51,19.36-33.77,51.92-2.81,72.67s82.49,21.88,115,2.54c17.81-10.6,26.24-25.18,25.14-39.59l39.89,2.7c0,20.25-12.57,40.39-37.58,55.29-48.42,28.82-125.16,27.13-171.27-3.78s-44.24-79.4,4.18-108.23A137.09,137.09,0,0,1,3169.8,1783.47Z"/><path class="cls-21" d="M2279.4,1824c.39-.24.78-.48,1.19-.71l623.3-346.88c10.81-6,30-4.6,42.87,3.17l901.56,544.39q1.56.94,2.91,2c9.46-6.15,7.45-16.78-4.91-24.24l-901.57-544.4c-12.85-7.76-32.06-9.18-42.86-3.17L2278.59,1801C2268.66,1806.49,2269.27,1816.38,2279.4,1824Z"/><text class="cls-41" transform="matrix(0.77, -0.46, 0.84, 0.55, 2643.82, 1897.12)">74</text><text class="cls-42" transform="matrix(0.77, -0.45, 0.84, 0.54, 2923.88, 2086.34)">28</text><g id="path29356"><path class="cls-43" d="M1410.37,526.45,2181.84,79.59c9-5.18,18.07-6,26.14-3.21l0-.08,1.41.53.33.12,27.88,10.71-25,12.29.35,1.37,136.33,621.91c6.28,28.73-6.32,62.25-28.14,74.9l-752.94,436.1,2.69,32-30.46-11.85c-10.24-4.81-18.44-15.67-21.83-31.14L1382.24,601.33c-6.31-28.7,6.3-62.25,28.13-74.88"/></g><g id="path29358"><path class="cls-44" d="M1410.37,526.45,2181.84,79.59c9-5.18,18.07-6,26.14-3.21l0-.08,1.41.53.33.12,27.88,10.71-25,12.29.35,1.37,93.47,426.26-377.47,295L1386,557.29c5.12-13.29,13.61-24.62,24.38-30.84"/></g><g id="path29360"><path class="cls-45" d="M1439.46,614.65l-58.73-25.08c-1.08-22.82,8.34-46.4,23.79-59l93,39.24-58,44.84"/></g><g id="path29362"><path class="cls-46" d="M1597.64,1263.19l771.49-446.86c21.82-12.62,34.42-46.15,28.14-74.88L2261,119.53c-6.3-28.7-29.09-41.75-50.92-29.1L1438.56,537.27c-21.82,12.65-34.42,46.18-28.13,74.9l136.32,621.93c6.28,28.71,29.07,41.74,50.89,29.09"/></g><g id="path293621"><path class="cls-47" d="M1597.64,1263.19l771.49-446.86c21.82-12.62,34.42-46.15,28.14-74.88L2261,119.53c-6.3-28.7-29.09-41.75-50.92-29.1L1438.56,537.27c-21.82,12.65-34.42,46.18-28.13,74.9l136.32,621.93c6.28,28.71,29.07,41.74,50.89,29.09"/></g><g id="path29364"><path class="cls-11" d="M1431.15,534.56,2202.63,87.71c10.57-6.13,21.33-6.11,30.38-1.33-7.25-1.58-15.16-.48-23,4.05L1438.56,537.27c-21.82,12.65-34.42,46.18-28.13,74.9l136.32,621.92c3.24,14.81,10.89,25.32,20.52,30.43-13-2.86-23.89-14.71-27.94-33.15L1403,609.46c-6.29-28.74,6.31-62.26,28.13-74.9"/></g><g id="path29366"><path class="cls-11" d="M1614.37,1220.51l725.57-420c20-11.56,31.49-42.25,25.74-68.52L2240,158.74c-5.75-26.27-26.61-38.2-46.58-26.63L1467.88,552.16c-20,11.56-31.5,42.24-25.75,68.53l125.65,573.18c5.76,26.29,26.62,38.21,46.59,26.64"/></g><g id="path29368"><path class="cls-48" d="M1614.37,1220.51l725.57-420c20-11.56,31.49-42.25,25.74-68.52L2240,158.74c-5.75-26.27-26.61-38.2-46.58-26.63L1467.88,552.16c-20,11.56-31.5,42.24-25.75,68.53l125.65,573.18c5.76,26.29,26.62,38.21,46.59,26.64"/></g><g id="path29370"><path class="cls-49" d="M1608,1217.94l725.58-420.05c20-11.59,31.48-42.26,25.74-68.54L2233.7,156.16c-2.91-13.29-9.7-22.87-18.27-27.64,11.51,3,21,13.79,24.6,30.22l125.65,573.2c5.75,26.27-5.77,57-25.74,68.52l-725.57,420.05c-9.86,5.72-19.93,5.66-28.29,1,6.88,1.79,14.49.76,22-3.57"/></g><g id="path29372"><path class="cls-43" d="M1587,1282.66l105.46-14,680.75-394.3c21.83-12.64,59.94-11,85.14,3.54l482.38,279.3,63.75-8.44v36.29h0c.42,8.38-4.34,16.44-14.65,22.41L2218.3,1654.36c-21.82,12.63-60,11.05-85.15-3.54l-525.32-304.18c-14.18-8.2-21.25-18.78-20.84-28.72v-35.26"/></g><g id="path29374"><path class="cls-44" d="M2098.48,1033.51l48.37-28h531.74l262.13,151.73,63.75-8.44v36.29h0c.42,8.38-4.34,16.44-14.65,22.41L2218.3,1654.36c-11.55,6.68-27.62,9.36-44,8.26l-75.87-629.11"/></g><g id="path29376"><path class="cls-49" d="M2976.18,1152.53l28.29-3.74v36.29h0c.42,8.38-4.34,16.44-14.65,22.41l-13.59,7.88v-62.85"/></g><g id="path29380"><path class="cls-46" d="M2218.3,1618.12l771.47-446.86c21.83-12.65,19.1-34.72-6.11-49.33L2458.34,817.76c-25.2-14.59-63.31-16.17-85.14-3.55l-771.49,446.86c-21.82,12.65-19.09,34.72,6.12,49.33l525.32,304.16c25.2,14.6,63.33,16.18,85.15,3.56"/></g><g id="path293801"><path class="cls-50" d="M2218.3,1618.12l771.47-446.86c21.83-12.65,19.1-34.72-6.11-49.33L2458.34,817.76c-25.2-14.59-63.31-16.17-85.14-3.55l-771.49,446.86c-21.82,12.65-19.09,34.72,6.12,49.33l525.32,304.16c25.2,14.6,63.33,16.18,85.15,3.56"/></g><path class="cls-51" d="M2550.22,1165.6c-17.28-10.12-43.54-11-58.59-1.93l-270.06,162.6c-15.05,9-13.23,24.64,4,34.76l123.87,72.57c17.28,10.12,43.54,11,58.59,1.92l270.06-162.6c15.05-9.06,13.23-24.63-4-34.75Z"/><g id="path29382"><path class="cls-11" d="M1607.83,1297.13l525.32,304.17c25.2,14.61,63.33,16.19,85.15,3.55L2989.77,1158c7.17-4.15,11.63-9.32,13.58-14.9,3.4,10.37-.95,20.84-13.58,28.16L2218.3,1618.12c-21.82,12.62-60,11-85.15-3.55L1607.83,1310.4c-16.94-9.82-23.67-23-19.69-34.44,2.49,7.54,9.06,15,19.69,21.17"/></g><g id="path29384"><path class="cls-48" d="M1936.9,1412.44,1898,1435c-2.3,1.32-2,3.65.65,5.19l16.85,9.75c2.65,1.55,6.66,1.7,9,.38l38.88-22.52c2.31-1.35,2-3.66-.63-5.18l-16.86-9.78C1943.21,1411.29,1939.21,1411.11,1936.9,1412.44Zm54.35-31.47-38.88,22.5c-2.29,1.34-2,3.67.65,5.21l16.86,9.77c2.64,1.53,6.66,1.69,8.95.36l38.89-22.52c2.29-1.33,2-3.65-.65-5.2l-16.85-9.76C1997.57,1379.81,1993.56,1379.65,1991.25,1381ZM1872,1411.73l102.81-59.55c2.81-1.62,2.45-4.46-.78-6.33l-34.59-20c-3.24-1.86-8.13-2.06-10.93-.45l-102.81,59.56c-2.8,1.61-2.45,4.45.8,6.31l34.58,20C1864.28,1413.15,1869.18,1413.36,1872,1411.73Zm173.19-62-38.88,22.51c-2.31,1.32-2,3.66.64,5.2l16.85,9.77c2.66,1.53,6.68,1.68,9,.35l38.89-22.51c2.3-1.33,2-3.65-.64-5.19l-16.86-9.77C2051.47,1348.58,2047.45,1348.41,2045.16,1349.75Zm-226.28,32,76.16-44.12c2.8-1.63,2.46-4.44-.77-6.33l-34.59-20c-3.24-1.87-8.13-2.08-10.94-.47l-76.16,44.14c-2.8,1.61-2.46,4.45.78,6.31l34.58,20C1811.18,1383.12,1816.07,1383.33,1818.88,1381.7Zm268.68-25.87,34.9-20.2c2.8-1.64,2.46-4.48-.77-6.34l-41.21-23.88c-3.23-1.86-8.14-2.07-10.95-.44l-34.89,20.2c-2.81,1.64-2.46,4.48.78,6.35l41.2,23.86C2079.86,1357.27,2084.76,1357.45,2087.56,1355.83Zm-321.15-4.53,34.9-20.22c2.81-1.62,2.45-4.45-.78-6.34l-34.59-20c-3.24-1.88-8.13-2.08-10.93-.45l-34.9,20.21c-2.81,1.61-2.45,4.44.77,6.33l34.59,20C1758.72,1352.72,1763.6,1352.94,1766.41,1351.3ZM1994.15,1341l34.89-20.21c2.81-1.61,2.46-4.46-.77-6.32l-34.59-20c-3.24-1.89-8.13-2.09-10.94-.45l-34.91,20.2c-2.79,1.62-2.44,4.47.8,6.34l34.57,20C1986.44,1342.39,1991.34,1342.61,1994.15,1341Zm-79.44-14.77,34.91-20.23c2.8-1.62,2.44-4.45-.77-6.32l-34.6-20.05c-3.25-1.87-8.13-2.07-10.93-.45l-34.91,20.23c-2.81,1.62-2.45,4.45.79,6.33l34.58,20C1907,1327.61,1911.92,1327.81,1914.71,1326.2Zm224.78-.45,55.83-32.33c2.81-1.62,2.45-4.47-.78-6.33l-41.2-23.87c-3.23-1.87-8.13-2.08-10.93-.45l-55.82,32.33c-2.81,1.64-2.46,4.44.77,6.34l41.21,23.86C2131.8,1327.17,2136.71,1327.37,2139.49,1325.75Zm-425.56-4.84,64.29-37.23c2.81-1.62,2.45-4.47-.78-6.33l-34.6-20c-3.23-1.87-8.12-2.07-10.93-.45l-64.28,37.24c-2.81,1.61-2.45,4.45.78,6.34l34.59,20C1706.24,1322.34,1711.14,1322.54,1713.93,1320.91Zm106.39-.83,34.9-20.21c2.81-1.62,2.45-4.46-.79-6.34l-34.59-20c-3.23-1.87-8.12-2.07-10.92-.45L1774,1293.27c-2.8,1.61-2.44,4.45.79,6.31l34.6,20.06C1812.61,1321.5,1817.51,1321.71,1820.32,1320.08Zm227.74-10.33,34.89-20.22c2.81-1.61,2.46-4.45-.78-6.31l-34.57-20c-3.25-1.87-8.14-2.08-10.95-.45l-34.92,20.21c-2.79,1.62-2.43,4.46.8,6.35l34.58,20C2040.35,1311.18,2045.25,1311.38,2048.06,1309.75ZM1968.62,1295l34.91-20.22c2.8-1.63,2.46-4.47-.79-6.35l-34.58-20c-3.24-1.88-8.13-2.06-10.93-.44l-34.92,20.22c-2.81,1.62-2.44,4.46.79,6.32l34.59,20C1960.93,1296.39,1965.83,1296.59,1968.62,1295Zm-94.41-6.13,34.92-20.2c2.8-1.63,2.44-4.47-.79-6.34l-34.59-20c-3.24-1.86-8.13-2.09-10.93-.46l-34.9,20.22c-2.81,1.61-2.45,4.46.79,6.34l34.57,20C1866.53,1290.29,1871.42,1290.49,1874.21,1288.85Zm529.57-177.48h0l-34.58,20-20.88,12.09-.12.08L2161.07,1252c-3,1.75-3,4.58,0,6.32l42,24.34a12.07,12.07,0,0,0,10.92,0l208.13-120.56,35-20.24c2.79-1.63,2.44-4.46-.81-6.33l-41.19-23.87c-3.24-1.87-8.13-2.08-10.94-.45ZM2102,1278.54l34.91-20.23c2.81-1.63,2.47-4.45-.78-6.33l-34.59-20c-3.23-1.88-8.13-2.09-10.94-.45l-34.91,20.21c-2.79,1.63-2.45,4.46.8,6.34l34.58,20C2094.25,1280,2099.15,1280.16,2102,1278.54Zm-307.16-4.46,34.92-20.2c2.79-1.64,2.43-4.48-.8-6.36l-34.58-20c-3.24-1.87-8.14-2.07-10.95-.45l-34.89,20.22c-2.81,1.62-2.46,4.47.78,6.33l34.59,20C1787.09,1275.49,1792,1275.7,1794.79,1274.08Zm-97.77-7.26,34.9-20.23c2.81-1.61,2.45-4.45-.78-6.31l-11.43-6.65c-3.24-1.86-8.14-2.06-10.94-.44l-34.9,20.21c-2.8,1.63-2.46,4.48.78,6.35l11.43,6.61C1689.33,1268.24,1694.21,1268.43,1697,1266.82Zm325.51-3.07,34.91-20.21c2.8-1.64,2.46-4.48-.79-6.35l-34.59-20c-3.23-1.86-8.13-2.06-10.93-.44l-34.91,20.22c-2.81,1.62-2.45,4.45.79,6.33l34.59,20C2014.83,1265.17,2019.72,1265.36,2022.53,1263.75Zm-94.41-6.11,34.91-20.22c2.81-1.62,2.45-4.45-.79-6.33l-34.58-20c-3.24-1.87-8.13-2.1-10.93-.46l-34.92,20.23c-2.79,1.61-2.43,4.44.8,6.33l34.58,20C1920.44,1259.06,1925.33,1259.27,1928.12,1257.64Zm227.75-10.34,34.89-20.21c2.8-1.62,2.45-4.45-.77-6.34l-34.59-20c-3.24-1.87-8.13-2.07-10.94-.44l-34.89,20.21c-2.81,1.62-2.46,4.45.76,6.34l34.59,20C2148.17,1248.73,2153.06,1248.93,2155.87,1247.3Zm-307.17-4.44,34.91-20.21c2.79-1.63,2.44-4.48-.8-6.34l-34.57-20c-3.24-1.88-8.14-2.08-10.94-.45L1802.4,1216c-2.8,1.63-2.46,4.47.77,6.33l34.6,20C1841,1244.28,1845.89,1244.48,1848.7,1242.86Zm-98.27-7,34.92-20.2c2.79-1.62,2.44-4.47-.8-6.34l-11.43-6.62c-3.23-1.86-8.14-2.09-10.93-.45l-34.92,20.2c-2.79,1.63-2.45,4.47.8,6.34l11.44,6.62C1742.74,1237.31,1747.62,1237.51,1750.43,1235.87Zm326-3.36,34.89-20.2c2.81-1.64,2.46-4.47-.76-6.34l-34.6-20c-3.25-1.86-8.13-2.07-10.93-.45l-34.91,20.24c-2.79,1.6-2.45,4.44.78,6.31l34.59,20C2068.74,1234,2073.63,1234.14,2076.44,1232.51Zm-94.42-6.1,34.92-20.2c2.81-1.62,2.45-4.47-.79-6.34l-34.59-20c-3.23-1.88-8.14-2.09-10.93-.45l-34.91,20.2c-2.8,1.62-2.44,4.47.8,6.34l34.59,20C1974.33,1227.82,1979.23,1228.05,1982,1226.41Zm227.75-10.34,34.9-20.2c2.81-1.63,2.45-4.47-.78-6.33l-34.59-20c-3.23-1.86-8.12-2.08-10.93-.46l-34.9,20.22c-2.81,1.62-2.47,4.46.78,6.34l34.58,20C2202.07,1217.51,2207,1217.71,2209.77,1216.07Zm-307.17-4.44,34.92-20.22c2.79-1.62,2.45-4.45-.8-6.32l-34.58-20c-3.23-1.87-8.14-2.07-11-.45l-34.89,20.23c-2.81,1.61-2.46,4.45.78,6.33l34.6,20C1894.91,1213.05,1899.79,1213.25,1902.6,1211.63Zm-98.75-6.69,34.91-20.21c2.79-1.63,2.44-4.48-.8-6.34l-11.42-6.62c-3.24-1.88-8.13-2.07-10.94-.46l-34.92,20.23c-2.78,1.61-2.43,4.45.8,6.31l11.44,6.65C1796.15,1206.36,1801,1206.56,1803.85,1204.94Zm326.5-3.64,34.9-20.22c2.8-1.62,2.46-4.46-.79-6.34l-34.6-20c-3.21-1.88-8.11-2.08-10.91-.46L2084,1174.49c-2.8,1.61-2.45,4.44.79,6.32l34.59,20C2122.64,1202.72,2127.54,1202.92,2130.35,1201.3Zm-94.42-6.11,34.91-20.22c2.81-1.61,2.45-4.45-.78-6.32l-34.59-20c-3.24-1.86-8.12-2.08-10.93-.45l-34.9,20.21c-2.81,1.62-2.45,4.46.78,6.34l34.58,20C2028.25,1196.61,2033.14,1196.82,2035.93,1195.19Zm227.75-10.34,34.9-20.21c2.79-1.62,2.44-4.46-.78-6.33l-34.59-20c-3.24-1.86-8.14-2.07-10.94-.45l-34.89,20.23c-2.81,1.6-2.46,4.44.78,6.34l34.57,20C2256,1186.29,2260.87,1186.48,2263.68,1184.85Zm-307.17-4.43,34.91-20.23c2.8-1.61,2.44-4.46-.79-6.33l-34.58-20c-3.24-1.89-8.14-2.07-10.93-.45l-34.91,20.22c-2.81,1.62-2.46,4.45.77,6.32l34.6,20C1948.82,1181.83,1953.7,1182,1956.51,1180.42Zm-99.25-6.41,34.91-20.24c2.79-1.61,2.44-4.44-.78-6.31l-11.44-6.63c-3.24-1.88-8.13-2.07-10.94-.46l-34.91,20.22c-2.79,1.64-2.44,4.47.8,6.34l11.43,6.62C1849.56,1175.42,1854.45,1175.64,1857.26,1174Zm327-3.93,34.9-20.21c2.79-1.63,2.45-4.48-.78-6.34l-34.59-20c-3.23-1.87-8.14-2.08-10.93-.45l-34.91,20.23c-2.8,1.61-2.45,4.45.79,6.31l34.58,20C2176.55,1171.5,2181.44,1171.7,2184.25,1170.08Zm-94.41-6.12,34.91-20.22c2.81-1.61,2.45-4.45-.78-6.31l-34.6-20c-3.23-1.87-8.11-2.08-10.92-.44l-34.92,20.21c-2.8,1.61-2.44,4.46.8,6.34l34.58,20C2082.14,1165.4,2087.05,1165.6,2089.84,1164Zm227.75-10.33,34.9-20.21c2.79-1.63,2.44-4.46-.79-6.33l-34.58-20c-3.24-1.88-8.13-2.09-10.94-.45l-34.9,20.21c-2.81,1.61-2.45,4.44.77,6.33l34.59,20C2309.89,1155.07,2314.78,1155.27,2317.59,1153.63Zm-307.17-4.44,34.91-20.21c2.8-1.63,2.44-4.47-.8-6.33L2010,1102.59c-3.23-1.87-8.13-2.06-10.92-.44l-34.92,20.22c-2.81,1.62-2.45,4.47.78,6.33l34.6,20C2002.72,1150.6,2007.61,1150.8,2010.42,1149.19Zm227.74-10.34,34.9-20.2c2.79-1.64,2.46-4.48-.79-6.34l-34.58-20c-3.23-1.86-8.13-2.07-10.93-.45L2191.83,1112c-2.79,1.62-2.43,4.46.81,6.34l34.58,20C2230.46,1140.29,2235.35,1140.47,2238.16,1138.85Zm-94.42-6.1,34.93-20.23c2.78-1.61,2.44-4.44-.79-6.32l-34.6-20c-3.24-1.87-8.12-2.07-10.93-.44l-34.91,20.21c-2.8,1.62-2.44,4.45.8,6.34l34.57,20C2136.05,1134.17,2141,1134.37,2143.74,1132.75Zm335.29-3.66,55.82-32.33c2.81-1.61,2.46-4.46-.79-6.33l-41.18-23.87c-3.25-1.87-8.14-2.07-11-.46l-55.82,32.34c-2.81,1.62-2.46,4.46.78,6.33l41.19,23.87C2471.33,1130.52,2476.22,1130.72,2479,1129.09Zm-107.54-6.68,34.91-20.21c2.8-1.62,2.44-4.46-.79-6.32L2371,1075.83c-3.23-1.86-8.14-2.08-10.94-.45l-34.89,20.22c-2.81,1.61-2.46,4.45.78,6.33l34.58,20C2363.79,1123.84,2368.68,1124,2371.49,1122.41ZM2064.32,1118l34.92-20.2c2.8-1.64,2.43-4.47-.8-6.34l-34.58-20c-3.25-1.86-8.14-2.07-10.93-.44L2018,1091.14c-2.81,1.63-2.45,4.47.78,6.35l34.59,20C2056.63,1119.39,2061.51,1119.58,2064.32,1118Zm227.74-10.31,34.91-20.22c2.81-1.63,2.46-4.47-.79-6.34l-34.59-20c-3.22-1.88-8.14-2.06-10.93-.45l-34.92,20.23c-2.79,1.62-2.44,4.45.81,6.32l34.58,20C2284.36,1109.05,2289.25,1109.26,2292.06,1107.64Zm-94.39-6.12,34.89-20.21c2.8-1.63,2.46-4.46-.79-6.34l-34.58-20c-3.24-1.86-8.13-2.08-10.92-.46l-34.93,20.22c-2.8,1.62-2.43,4.47.79,6.34l34.59,20C2190,1103,2194.86,1103.15,2197.67,1101.52Zm227.73-10.34,34.9-20.2c2.79-1.63,2.44-4.47-.79-6.33l-34.58-20c-3.24-1.86-8.14-2.09-10.94-.45l-34.89,20.2c-2.81,1.62-2.47,4.47.76,6.34l34.59,20C2417.7,1092.62,2422.59,1092.82,2425.4,1091.18Zm-307.17-4.44,34.9-20.22c2.81-1.63,2.45-4.46-.79-6.34l-34.57-20c-3.24-1.86-8.14-2.05-10.93-.45l-34.91,20.24c-2.81,1.62-2.45,4.44.78,6.33l34.59,20C2110.54,1088.16,2115.43,1088.35,2118.23,1086.74Zm435.62-1,34.9-20.22c2.81-1.61,2.46-4.44-.77-6.33l-41.2-23.85c-3.24-1.89-8.13-2.09-10.94-.48l-34.9,20.24c-2.81,1.61-2.47,4.44.78,6.32l41.19,23.86C2546.16,1087.17,2551.05,1087.38,2553.85,1085.75ZM2346,1076.41l34.9-20.2c2.79-1.64,2.45-4.48-.78-6.34l-34.59-20c-3.23-1.89-8.14-2.08-10.93-.46l-34.91,20.22c-2.8,1.62-2.45,4.47.77,6.33l34.59,20C2338.27,1077.82,2343.16,1078,2346,1076.41Zm-94.41-6.12,34.92-20.21c2.79-1.62,2.45-4.47-.79-6.33l-34.6-20c-3.23-1.86-8.13-2.07-10.93-.45l-34.91,20.22c-2.79,1.62-2.44,4.45.79,6.34l34.59,20C2243.86,1071.73,2248.75,1071.92,2251.56,1070.29ZM2479.3,1060l34.91-20.22c2.79-1.61,2.44-4.44-.79-6.32l-34.59-20c-3.23-1.87-8.12-2.09-10.93-.45l-34.9,20.22c-2.81,1.62-2.47,4.45.77,6.34l34.6,20C2471.58,1061.39,2476.5,1061.59,2479.3,1060Zm-307.18-4.44,34.93-20.21c2.8-1.63,2.44-4.48-.79-6.34l-34.59-20c-3.24-1.88-8.14-2.06-10.94-.45l-34.9,20.23c-2.81,1.61-2.45,4.45.79,6.31l34.59,20C2164.43,1056.94,2169.34,1057.14,2172.12,1055.52Zm435.64-1,34.9-20.21c2.81-1.63,2.46-4.46-.78-6.36l-41.19-23.84c-3.25-1.88-8.14-2.08-11-.46l-34.89,20.23c-2.81,1.61-2.47,4.45.78,6.31l41.19,23.88C2600.07,1055.94,2605,1056.16,2607.76,1054.53Zm-207.88-9.34,34.9-20.22c2.79-1.62,2.46-4.47-.79-6.33l-34.59-20c-3.22-1.87-8.12-2.08-10.92-.45l-34.91,20.22c-2.81,1.62-2.46,4.46.77,6.34l34.59,20C2392.17,1046.6,2397.07,1046.81,2399.88,1045.19Zm-93.08-6.88,34.92-20.22c2.79-1.62,2.44-4.47-.78-6.34l-34.6-20c-3.24-1.86-8.13-2.09-10.94-.45l-34.9,20.2c-2.8,1.64-2.45,4.47.79,6.34l34.59,20C2299.12,1039.71,2304,1039.93,2306.8,1038.31Zm227.42-10.16L2637,968.6c2.8-1.61,2.45-4.46-.8-6.32l-34.58-20c-3.23-1.88-8.12-2.08-10.93-.45l-102.81,59.54c-2.79,1.62-2.45,4.47.79,6.33l34.59,20C2526.54,1029.56,2531.43,1029.78,2534.22,1028.15ZM2226,1024.29l34.91-20.2c2.81-1.64,2.45-4.48-.77-6.34l-34.59-20c-3.25-1.86-8.14-2.07-10.94-.45l-34.91,20.23c-2.79,1.61-2.44,4.45.79,6.33l34.59,20C2218.34,1025.71,2223.25,1025.91,2226,1024.29Zm435.64-1,34.9-20.21c2.81-1.62,2.47-4.45-.78-6.34L2654.6,972.9c-3.25-1.88-8.14-2.09-10.95-.47l-34.9,20.22c-2.81,1.62-2.46,4.47.78,6.34l41.2,23.87C2654,1024.72,2658.86,1024.93,2661.67,1023.3Zm-207.1-9.8,34.92-20.22c2.81-1.62,2.45-4.45-.79-6.33l-34.59-20c-3.23-1.87-8.13-2.08-10.93-.45l-34.91,20.21c-2.8,1.63-2.45,4.47.8,6.34l34.59,20C2446.88,1014.92,2451.78,1015.12,2454.57,1013.5Zm-92.5-7.19L2397,986.08c2.81-1.63,2.45-4.45-.78-6.34l-34.59-20c-3.23-1.87-8.12-2.06-10.93-.44l-34.9,20.21c-2.8,1.63-2.46,4.48.78,6.34l34.58,20C2354.36,1007.72,2359.26,1007.92,2362.07,1006.31Zm-206.6-5,34.91-20.22c2.8-1.62,2.44-4.46-.79-6.32l-11.44-6.64c-3.23-1.88-8.14-2.07-10.93-.45l-34.91,20.22c-2.8,1.62-2.45,4.47.78,6.33l11.43,6.63C2147.77,1002.71,2152.66,1002.9,2155.47,1001.28Zm124.47-8.21,34.91-20.21c2.81-1.64,2.45-4.48-.77-6.34l-34.6-20c-3.24-1.87-8.13-2.09-10.92-.46l-34.93,20.23c-2.8,1.62-2.44,4.45.8,6.32l34.59,20C2272.24,994.5,2277.16,994.7,2279.94,993.07Zm229.44-11.3,75.18-43.56c2.81-1.62,2.44-4.46-.79-6.33l-34.59-20c-3.23-1.86-8.12-2.07-10.92-.45l-75.19,43.54c-2.8,1.64-2.45,4.47.79,6.34l34.58,20C2501.68,983.18,2506.57,983.38,2509.38,981.77Zm-92.07-7.46,34.9-20.23c2.81-1.63,2.46-4.46-.79-6.33l-34.59-20c-3.23-1.86-8.12-2.08-10.93-.45L2371,947.5c-2.81,1.6-2.46,4.44.78,6.31l34.59,20C2409.61,975.73,2414.5,975.92,2417.31,974.31Zm-208.43-4,34.91-20.2c2.81-1.63,2.46-4.47-.79-6.33l-11.43-6.63c-3.24-1.88-8.13-2.06-10.94-.45l-34.9,20.21c-2.81,1.63-2.45,4.46.77,6.33l11.45,6.63C2201.18,971.77,2206.08,972,2208.88,970.33ZM2333.59,962l34.91-20.21c2.79-1.63,2.45-4.47-.8-6.34l-34.57-20c-3.24-1.88-8.14-2.09-10.94-.47l-34.91,20.23c-2.8,1.6-2.45,4.44.78,6.33l34.58,20C2325.89,963.42,2330.78,963.64,2333.59,962Zm137.49-18.84,61-35.34c2.8-1.62,2.46-4.46-.79-6.33l-34.6-20c-3.22-1.88-8.11-2.06-10.91-.44l-61,35.34c-2.81,1.61-2.46,4.44.79,6.31l34.59,20C2463.37,944.58,2468.29,944.78,2471.08,943.16Zm-208.79-3.75,34.91-20.23c2.81-1.61,2.46-4.44-.78-6.33L2285,906.23c-3.23-1.88-8.14-2.07-10.94-.44L2239.15,926c-2.81,1.62-2.46,4.45.76,6.33l11.45,6.63C2254.6,940.82,2259.5,941,2262.29,939.41Zm124.92-8.47,34.91-20.23c2.81-1.62,2.46-4.45-.76-6.33l-34.6-20c-3.25-1.86-8.13-2.06-10.93-.45l-34.9,20.22c-2.81,1.62-2.46,4.46.77,6.35l34.59,20C2379.53,932.36,2384.43,932.55,2387.21,930.94Zm-71.52-22.47,34.93-20.23c2.8-1.62,2.43-4.45-.78-6.33l-11.45-6.63c-3.22-1.86-8.14-2.07-10.93-.45l-34.9,20.23c-2.81,1.61-2.46,4.45.78,6.33l11.43,6.62C2308,909.89,2312.91,910.08,2315.69,908.47Zm125.17-8.6,34.91-20.22c2.79-1.64,2.45-4.44-.79-6.34l-34.58-20c-3.24-1.87-8.14-2.08-10.94-.45L2394.56,873c-2.81,1.64-2.46,4.47.78,6.35l34.58,20C2433.16,901.29,2438.05,901.49,2440.86,899.87Zm-55.15-32,34.91-20.2c2.8-1.63,2.45-4.47-.8-6.33l-11.41-6.63c-3.25-1.88-8.14-2.08-10.95-.45l-34.91,20.2c-2.79,1.64-2.45,4.47.79,6.34l11.43,6.62C2378,869.36,2382.91,869.55,2385.71,867.91Z"/></g><g id="path29538"><path class="cls-46" d="M1535.23,687l87.68-50.78-3.75-18.93L1531.49,668l3.74,18.93"/></g><g id="path72870"><path class="cls-52" d="M1964.18,614l124.19-71.91c11-6.38,17.54-22.15,14.64-35.23l-27-121.74c-2.9-13.09-14.17-18.55-25.17-12.17l-124.2,71.93c-11,6.36-17.54,22.15-14.62,35.23l27,121.72c2.9,13.1,14.17,18.55,25.16,12.17"/></g><g id="path72872"><path class="cls-53" d="M1747.55,739.47l124.2-72c11-6.36,17.55-22.13,14.64-35.23l-27-121.72c-2.9-13.1-14.17-18.55-25.18-12.17L1710,570.31c-11,6.38-17.56,22.15-14.66,35.23l27,121.74c2.92,13.08,14.17,18.53,25.17,12.19"/></g><text class="cls-54" transform="matrix(0.82, -0.49, 0.25, 0.97, 1734.85, 708.35)">32</text><text class="cls-55" transform="matrix(0.82, -0.49, 0.25, 0.97, 1955.78, 581.14)">52</text><g id="path72874"><path class="cls-11" d="M2012.18,830.23l124.18-71.92c11-6.37,17.55-22.14,14.66-35.24l-27-121.72c-2.9-13.1-14.17-18.54-25.16-12.2l-124.19,72c-11,6.35-17.56,22.13-14.64,35.22l27,121.72c2.9,13.1,14.15,18.56,25.15,12.18"/></g><g id="path72876"><path class="cls-31" d="M1795.56,955.71l124.18-71.94c11-6.37,17.55-22.14,14.65-35.22l-27-121.74c-2.9-13.08-14.18-18.54-25.18-12.16L1758,786.57c-11,6.36-17.56,22.14-14.66,35.22l27,121.76c2.9,13.08,14.17,18.54,25.17,12.16"/></g><text class="cls-55" transform="matrix(0.82, -0.49, 0.25, 0.97, 1792.92, 924.01)">64</text><text class="cls-54" transform="matrix(0.82, -0.49, 0.25, 0.97, 2001.61, 797.25)">83</text><path class="cls-33" d="M1524.56,2324.93l58.08-38c25.52,13.85,37.74,23.53,46.42,30.1,10.89,8.26,27.88-3.34,36-18.58s6.75-45.92,6.13-64.39c-.12-3.54,2.6-13.76-3.49-16.84-7.93-4-9.37,33.19-9.37,33.19s-34.34-19.48-58.62-32.38l4.74-60.05q24.49-11.77,36.92-31.35t11.71-41.09c-.41-12.21,10.7-17,4.17-21.06s-11.68,17.61-22.12,22.95-49.85,79.08-50.89,95.71l-61-33.66q4.68-35.86,15.71-61.51a165.13,165.13,0,0,1,31.57-47.61,168.63,168.63,0,0,1,46.5-35.25c29.61-15.15,51.16-12.82,72.34-3.79,25.13,10.71,63.2,28,64,50.46,1.08,31.83-13.36,59.88-42.9,94.29,18.17-4.77-6.69,1.5,4.63,11.47,6.93,6.1,56.92,35.14,56.92,35.14s-39.11,4.21-38.83,12.73c1.08,31.83,18.47,87.26-.94,120s-45.45,79.79-75.48,95.16c-28.47,14.56-76.8-8.75-97-28.67C1545,2377.46,1528.59,2353.91,1524.56,2324.93Zm444.8-408.27-1.3,72.39c-8.59-2.69-53.74-36.77-68.59-24.22-26.64,22.49-63.23,63.68-63.79,91.22,14.33-28.14,26.83-45.71,49.15-57.13q37.76-19.32,65.81,0c6.28,4.34,61.3,36.36,65.61,43.19,8.5,13.49-36.58,5.41-35.8,28.62,1.25,37.11,15.79,110.19-2.33,142.28s-32.91,61.89-62.52,77c-31.75,16.25-90.4-29.28-111.81-47.26s-33.22-59.38-35.41-124.2Q1765,2019,1795.5,1958.56t81.55-86.52q35.84-18.33,60.11-7.23c11,5,64.68,32.93,70.65,47.12C2010.61,1918.59,1967.67,1908,1969.36,1916.66ZM1837.8,2138.24q1.14,33.89,15.28,45.4t31.52,2.62c11.16-5.71,22-14.91,27.38-29.36,8.09-21.84,9.68-37.27,1.83-58.46-8.31-22.45-22.56,11.38-30.94,4.51s6.26-54.14-5.76-48q-17.37,8.88-28.86,30.75T1837.8,2138.24Z"/><text class="cls-56" transform="matrix(0.87, -0.44, 0.03, 1, 1567.32, 2464.69)">36</text><polygon class="cls-57" points="660.11 2429.53 1956.48 1679.1 1976.91 1689.89 680.54 2440.32 660.11 2429.53"/><polygon class="cls-58" points="955.83 405.63 1131.82 312.74 1133.57 344.28 957.58 437.17 955.83 405.63"/><polygon class="cls-58" points="478 195.56 653.99 102.67 655.74 134.22 479.75 227.1 478 195.56"/></g></svg>