<?xml version="1.0" encoding="UTF-8" standalone="no"?><!DOCTYPE svg PUBLIC "-//W3C//DTD SVG 1.1//EN" "http://www.w3.org/Graphics/SVG/1.1/DTD/svg11.dtd"><svg width="4000px" height="2500px" version="1.1" xmlns="http://www.w3.org/2000/svg" xmlns:xlink="http://www.w3.org/1999/xlink" xml:space="preserve" xmlns:serif="http://www.serif.com/" style="fill-rule:evenodd;clip-rule:evenodd;stroke-linejoin:round;stroke-miterlimit:2;"><g><g transform="matrix(0.640347,0,0,0.640347,2406.36,-534.777)"><g transform="matrix(1.56165,0,0,1.56165,-3757.24,834.803)"><rect x="111.817" y="218.725" width="3805.79" height="2107.56" style="fill:rgb(174,211,240);"/></g><g transform="matrix(1.56165,0,0,1.56165,-3757.9,835.135)"><path d="M3917.61,2326.28L1817.93,2326.28C1930.65,2227.52 2050.25,2140.39 2081.17,2121.42C2615.42,1793.49 3029.99,2060.26 3565.53,1899.29C3715.93,1854.09 3829.84,1779.1 3917.61,1680.5L3917.61,2326.28ZM3498.82,218.725L111.817,218.725L111.817,1435.39C552.698,1330.11 1198.9,776.562 1482.87,631.702C1891.79,423.1 2343.82,467.625 2782.17,412.793C2818.45,408.255 2854.25,400.416 2890.28,394.154C3088,359.789 3285.07,315.188 3469.43,233.712C3476.27,230.69 3482.32,226.077 3489.09,222.923C3492.29,221.435 3495.54,220.056 3498.82,218.725Z" style="fill:rgb(195,220,243);"/></g></g><g transform="matrix(1,0,0,1,0.418104,-0.212506)"><rect x="111.817" y="218.725" width="3805.79" height="2107.56" style="fill:none;"/><clipPath id="_clip1"><rect x="111.817" y="218.725" width="3805.79" height="2107.56"/></clipPath><g clip-path="url(#_clip1)"><g transform="matrix(1,0,0,1,-0.418104,0.212506)"><g transform="matrix(0.772567,-0.465353,1.08587,0.646023,332.026,1363.54)"><g transform="matrix(1,0,0,0.735448,0,146.031)"><rect x="1770.7" y="551.996" width="1785.02" height="13.393" style="fill:white;fill-opacity:0.45;"/></g><g transform="matrix(1,0,0,0.735448,0,237.418)"><rect x="1770.7" y="551.996" width="1785.02" height="13.393" style="fill:white;fill-opacity:0.45;"/></g><g transform="matrix(1,0,0,0.735448,0,328.805)"><rect x="1770.7" y="551.996" width="1785.02" height="13.393" style="fill:white;fill-opacity:0.45;"/></g><g transform="matrix(1,0,0,0.735448,0,420.192)"><rect x="1770.7" y="551.996" width="1785.02" height="13.393" style="fill:white;fill-opacity:0.45;"/></g><g transform="matrix(1,0,0,0.735448,0,511.579)"><rect x="1770.7" y="551.996" width="1785.02" height="13.393" style="fill:white;fill-opacity:0.45;"/></g><g transform="matrix(1,0,0,0.735448,0,602.966)"><rect x="1770.7" y="551.996" width="1785.02" height="13.393" style="fill:white;fill-opacity:0.45;"/></g><g transform="matrix(1,0,0,0.735448,0,694.353)"><rect x="1770.7" y="551.996" width="1785.02" height="13.393" style="fill:white;fill-opacity:0.45;"/></g><rect x="1888.91" y="451.812" width="9.909" height="763.69" style="fill:white;fill-opacity:0.55;"/><g transform="matrix(1,0,0,1,116.532,0)"><rect x="1888.91" y="451.812" width="9.909" height="763.69" style="fill:white;fill-opacity:0.55;"/></g><g transform="matrix(1,0,0,1,233.065,0)"><rect x="1888.91" y="451.812" width="9.909" height="763.69" style="fill:white;fill-opacity:0.55;"/></g><g transform="matrix(1,0,0,1,349.597,0)"><rect x="1888.91" y="451.812" width="9.909" height="763.69" style="fill:white;fill-opacity:0.55;"/></g><g transform="matrix(1,0,0,1,466.129,0)"><rect x="1888.91" y="451.812" width="9.909" height="763.69" style="fill:white;fill-opacity:0.55;"/></g><g transform="matrix(1,0,0,1,582.661,0)"><rect x="1888.91" y="451.812" width="9.909" height="763.69" style="fill:white;fill-opacity:0.55;"/></g><g transform="matrix(1,0,0,1,699.194,0)"><rect x="1888.91" y="451.812" width="9.909" height="763.69" style="fill:white;fill-opacity:0.55;"/></g><g transform="matrix(1,0,0,1,815.726,0)"><rect x="1888.91" y="451.812" width="9.909" height="763.69" style="fill:white;fill-opacity:0.55;"/></g><g transform="matrix(1,0,0,1,932.258,0)"><rect x="1888.91" y="451.812" width="9.909" height="763.69" style="fill:white;fill-opacity:0.55;"/></g><g transform="matrix(1,0,0,1,1048.79,0)"><rect x="1888.91" y="451.812" width="9.909" height="763.69" style="fill:white;fill-opacity:0.55;"/></g><g transform="matrix(1,0,0,1,1165.32,0)"><rect x="1888.91" y="451.812" width="9.909" height="763.69" style="fill:white;fill-opacity:0.55;"/></g><g transform="matrix(1,0,0,1,1281.85,0)"><rect x="1888.91" y="451.812" width="9.909" height="763.69" style="fill:white;fill-opacity:0.55;"/></g><g transform="matrix(1,0,0,1,1398.39,0)"><rect x="1888.91" y="451.812" width="9.909" height="763.69" style="fill:white;fill-opacity:0.55;"/></g><g transform="matrix(1,0,0,1,1514.92,0)"><rect x="1888.91" y="451.812" width="9.909" height="763.69" style="fill:white;fill-opacity:0.55;"/></g></g><g transform="matrix(0.640347,0,0,0.640347,2406.36,-534.777)"><g transform="matrix(0.596283,-0.363994,0.419285,0.249805,-343.759,1852.01)"><path d="M2166.94,1415.16C2166.94,1388.64 2149.47,1367.11 2127.96,1367.11L1727.55,1091.21C1720.07,1094.84 1505.75,1406.69 1508.46,1415.16L1508.46,2266.44C1508.46,2292.97 1525.93,2314.5 1547.44,2314.5L2127.96,2314.5C2149.47,2314.5 2371.73,1995.28 2367.95,1999.53L2166.94,1415.16Z" style="fill:rgb(207,140,86);"/></g><g transform="matrix(0.423556,-0.258555,0.29783,0.177443,633.122,1994.88)"><path d="M2166.94,1415.16C2166.94,1388.64 2149.47,1367.11 2127.96,1367.11L1808.48,976.076L1547.44,1367.11C1525.93,1367.11 1508.46,1388.64 1508.46,1415.16L1508.46,2266.44C1508.46,2292.97 1525.93,2314.5 1547.44,2314.5L2145.41,2310.59C2188.35,2259.99 2444.07,1890.7 2444.07,1890.7L2166.94,1415.16Z" style="fill:rgb(5,131,124);"/></g><g transform="matrix(0.596283,-0.363994,0.419285,0.249805,-804.088,2130.27)"><path d="M2166.94,1415.16C2166.94,1388.64 2149.47,1367.11 2127.96,1367.11L1735.62,1086.41C1727.26,1081.53 1507.29,1410.83 1508.46,1415.16L1508.46,2266.44C1508.46,2292.97 1525.93,2314.5 1547.44,2314.5L2140.75,2320.85C2154.87,2313.68 2332.68,2048.44 2367.7,2001.62L2166.94,1415.16Z" style="fill:rgb(5,131,124);"/></g><g transform="matrix(0.423556,-0.258555,0.29783,0.177443,331.65,2146.27)"><path d="M2166.94,1415.16C2166.94,1388.64 2149.47,1367.11 2127.96,1367.11L1686.99,1062.54C1676.52,1070.82 1485.15,1364.1 1486.5,1366.1L1508.46,2266.44C1508.46,2292.97 1525.93,2314.5 1547.44,2314.5L2089.71,2301.51C2096.93,2301.97 2313.85,1994.27 2325.81,1976.65L2166.94,1415.16Z" style="fill:rgb(196,64,107);"/></g><g transform="matrix(0.596283,-0.363994,0.419285,0.249805,-1264.42,2408.54)"><path d="M2166.94,1415.16C2166.94,1388.64 2149.47,1367.11 2127.96,1367.11L1730.14,1088.52C1718.26,1092.04 1540.01,1366.02 1508.46,1415.16L1508.46,2266.44C1508.46,2292.97 1525.93,2314.5 1547.44,2314.5L2127.96,2314.5C2149.47,2314.5 2179.13,2262.34 2197.83,2240.48L2366.08,2003.98L2166.94,1415.16Z" style="fill:rgb(196,64,107);"/></g><g transform="matrix(0.423556,-0.258555,0.29783,0.177443,-20.848,2390.2)"><path d="M2166.94,1415.16C2166.94,1388.64 2149.47,1367.11 2127.96,1367.11L1807.55,976.52C1774.7,1025.11 1607.56,1268.02 1528.36,1385.51C1515.94,1404.06 1508.46,1426.56 1508.46,1445.32C1508.46,1596.7 1508.46,2266.44 1508.46,2266.44C1508.46,2292.97 1525.93,2314.5 1547.44,2314.5L2127.96,2314.5C2137.77,2314.5 2199.36,2229.69 2269.57,2136.2C2353.34,2024.64 2447,1900.21 2447,1885.78L2166.94,1415.16Z" style="fill:rgb(207,140,86);"/></g><g transform="matrix(0.596283,-0.363994,0.419285,0.249805,-1263.3,2262.55)"><path d="M2166.94,1415.16C2166.94,1388.64 2149.47,1367.11 2127.96,1367.11L1547.44,1367.11C1525.93,1367.11 1508.46,1388.64 1508.46,1415.16L1508.46,2266.44C1508.46,2292.97 1525.93,2314.5 1547.44,2314.5L2127.96,2314.5C2149.47,2314.5 2166.94,2292.97 2166.94,2266.44L2166.94,1415.16Z" style="fill:rgb(236,97,152);"/></g><g transform="matrix(1.04154,0,0,1.0581,-2473.06,1230.33)"><ellipse cx="2658.78" cy="778.191" rx="24.973" ry="17.143" style="fill:white;"/></g><g transform="matrix(0.423556,-0.258555,0.29783,0.177443,-19.7277,2244.22)"><path d="M2166.94,1415.16C2166.94,1388.64 2149.47,1367.11 2127.96,1367.11L1547.44,1367.11C1525.93,1367.11 1508.46,1388.64 1508.46,1415.16L1508.46,2266.44C1508.46,2292.97 1525.93,2314.5 1547.44,2314.5L2127.96,2314.5C2149.47,2314.5 2166.94,2292.97 2166.94,2266.44L2166.94,1415.16Z" style="fill:rgb(235,208,99);"/></g><g transform="matrix(0.580901,0,0,0.73623,-460.549,1522.27)"><ellipse cx="2658.78" cy="778.191" rx="24.973" ry="17.143" style="fill:white;"/></g><g transform="matrix(0.596283,-0.363994,0.419285,0.249805,-802.968,1984.29)"><path d="M2166.94,1415.16C2166.94,1388.64 2149.47,1367.11 2127.96,1367.11L1547.44,1367.11C1525.93,1367.11 1508.46,1388.64 1508.46,1415.16L1508.46,2266.44C1508.46,2292.97 1525.93,2314.5 1547.44,2314.5L2127.96,2314.5C2149.47,2314.5 2166.94,2292.97 2166.94,2266.44L2166.94,1415.16Z" style="fill:rgb(68,174,158);"/></g><g transform="matrix(1.04154,0,0,1.0581,-2012.74,953.984)"><ellipse cx="2658.78" cy="778.191" rx="24.973" ry="17.143" style="fill:white;"/></g><g transform="matrix(0.423556,-0.258555,0.29783,0.177443,307.257,2046.56)"><path d="M2166.94,1415.16C2166.94,1388.64 2149.47,1367.11 2127.96,1367.11L1547.44,1367.11C1525.93,1367.11 1508.46,1388.64 1508.46,1415.16L1508.46,2266.44C1508.46,2292.97 1525.93,2314.5 1547.44,2314.5L2127.96,2314.5C2149.47,2314.5 2166.94,2292.97 2166.94,2266.44L2166.94,1415.16Z" style="fill:rgb(236,97,152);"/></g><g transform="matrix(0.580901,0,0,0.73623,-125.527,1322.76)"><ellipse cx="2658.78" cy="778.191" rx="24.973" ry="17.143" style="fill:white;"/></g><g transform="matrix(0.596283,-0.363994,0.419285,0.249805,-342.639,1706.02)"><path d="M2166.94,1415.16C2166.94,1388.64 2149.47,1367.11 2127.96,1367.11L1547.44,1367.11C1525.93,1367.11 1508.46,1388.64 1508.46,1415.16L1508.46,2266.44C1508.46,2292.97 1525.93,2314.5 1547.44,2314.5L2127.96,2314.5C2149.47,2314.5 2166.94,2292.97 2166.94,2266.44L2166.94,1415.16Z" style="fill:rgb(235,208,99);"/></g><g transform="matrix(1.04154,0,0,1.0581,-1549.4,677.72)"><ellipse cx="2658.78" cy="778.191" rx="24.973" ry="17.143" style="fill:white;"/></g><g transform="matrix(0.423556,-0.258555,0.29783,0.177443,634.242,1848.9)"><path d="M2166.94,1415.16C2166.94,1388.64 2149.47,1367.11 2127.96,1367.11L1547.44,1367.11C1525.93,1367.11 1508.46,1388.64 1508.46,1415.16L1508.46,2266.44C1508.46,2292.97 1525.93,2314.5 1547.44,2314.5L2127.96,2314.5C2149.47,2314.5 2166.94,2292.97 2166.94,2266.44L2166.94,1415.16Z" style="fill:rgb(68,174,158);"/></g><g transform="matrix(0.580901,0,0,0.73623,204.873,1131.21)"><ellipse cx="2658.78" cy="778.191" rx="24.973" ry="17.143" style="fill:white;"/></g><g transform="matrix(1.56165,-5.55112e-17,0,1.56165,-3757.9,835.135)"><path d="M2820.81,796.176L2842.01,809.522L2769.77,854.113C2762.54,848.586 2757.29,842.356 2754.03,835.425C2750.76,828.494 2748.97,817.734 2748.65,803.146C2748.35,791.378 2747.55,783.772 2746.24,780.326C2744.36,775.61 2741.12,771.803 2736.52,768.906C2731.43,765.702 2726.28,764.001 2721.08,763.803C2715.87,763.606 2711.09,764.85 2706.74,767.536C2702.44,770.192 2700.45,773.208 2700.78,776.584C2701.11,779.96 2704.41,783.866 2710.68,788.3L2687.87,799.544C2676.53,790.881 2671.35,782.836 2672.33,775.409C2673.32,767.983 2678.65,761.281 2688.33,755.306C2698.94,748.757 2710.44,745.605 2722.84,745.851C2735.24,746.097 2746.15,749.186 2755.57,755.117C2760.93,758.492 2765.17,762.24 2768.28,766.363C2771.39,770.485 2773.72,775.378 2775.26,781.043C2776.29,784.798 2776.86,790.762 2776.96,798.934C2777.07,807.107 2777.34,812.411 2777.76,814.846C2778.2,817.281 2778.9,819.478 2779.89,821.437L2820.81,796.176ZM2823.61,781.483L2840.87,767.482C2847.14,770.635 2853.16,772.288 2858.92,772.443C2864.69,772.598 2869.55,771.453 2873.51,769.008C2877.77,766.382 2879.56,763.047 2878.89,759.001C2878.23,754.956 2874.86,751.024 2868.8,747.206C2863.06,743.593 2857.11,741.589 2850.97,741.196C2844.83,740.803 2839.75,741.844 2835.74,744.318C2833.1,745.948 2830.51,748.253 2827.99,751.232L2811.66,738.119C2817.39,734.781 2820.3,731.312 2820.39,727.711C2820.49,724.111 2818.17,720.828 2813.46,717.862C2809.45,715.339 2805.18,713.992 2800.65,713.82C2796.12,713.648 2792.06,714.664 2788.49,716.867C2784.97,719.04 2783.32,721.748 2783.54,724.992C2783.75,728.236 2786.19,731.66 2790.85,735.264L2768.28,744.739C2762.4,739.391 2758.64,734.539 2757,730.184C2755.36,725.829 2755.69,721.405 2757.99,716.911C2760.29,712.418 2764.4,708.345 2770.32,704.693C2780.44,698.446 2792.13,695.686 2805.39,696.413C2816.27,696.986 2825.4,699.59 2832.76,704.226C2843.21,710.806 2846.4,719.239 2842.31,729.527C2849.93,726.645 2858.13,725.667 2866.91,726.592C2875.7,727.518 2883.69,730.248 2890.89,734.782C2901.35,741.361 2906.81,749.096 2907.28,757.987C2907.75,766.879 2902.85,774.494 2892.59,780.831C2882.86,786.837 2871.69,789.865 2859.09,789.916C2846.48,789.966 2834.65,787.155 2823.61,781.483Z" style="fill:rgb(246,178,205);fill-rule:nonzero;"/></g><g transform="matrix(0.272845,-0.16843,0.302243,0.190241,386.622,2098.83)"><text x="1407.28px" y="1674.2px" style="font-family:'Arial-BoldMT', 'Arial', sans-serif;font-weight:700;font-size:610.616px;fill:rgb(249,242,212);">14</text></g><g transform="matrix(0.384111,-0.237116,0.425498,0.267821,-230.909,1779.61)"><text x="1407.28px" y="1674.2px" style="font-family:'Arial-BoldMT', 'Arial', sans-serif;font-weight:700;font-size:610.616px;fill:rgb(166,220,212);">58</text></g><g transform="matrix(0.272845,-0.16843,0.302243,0.190241,713.607,1901.17)"><text x="1407.28px" y="1674.2px" style="font-family:'Arial-BoldMT', 'Arial', sans-serif;font-weight:700;font-size:610.616px;fill:rgb(246,178,205);">16</text></g><g transform="matrix(0.384111,-0.237116,0.425498,0.267821,229.421,1501.34)"><text x="1407.28px" y="1674.2px" style="font-family:'Arial-BoldMT', 'Arial', sans-serif;font-weight:700;font-size:610.616px;fill:rgb(249,242,212);">21</text></g><g transform="matrix(0.272845,-0.16843,0.302243,0.190241,1040.59,1703.51)"><text x="1407.28px" y="1674.2px" style="font-family:'Arial-BoldMT', 'Arial', sans-serif;font-weight:700;font-size:610.616px;fill:rgb(166,220,212);">54</text></g></g><g transform="matrix(1.24537,0,0,1.24537,-1283.58,751.376)"><g transform="matrix(1.22775,-0.749465,0.297902,0.177486,-1057.96,1933.12)"><path d="M2161.04,1509.27C2161.04,1482.75 2143.57,1461.21 2122.06,1461.21L1540.57,1297.96C1527.38,1296.52 1508.46,1388.64 1508.46,1415.16L1508.46,2266.44C1508.46,2292.97 1504.64,2319.45 1526.15,2319.45L2153.31,2431C2161.23,2411.95 2179.32,2345.57 2179.32,2319.04L2161.04,1509.27Z" style="fill:rgb(38,60,122);"/></g><g transform="matrix(1.22775,-0.749465,0.297902,0.177486,-1052.19,1909.06)"><path d="M2161.04,1509.27C2161.04,1482.75 2143.57,1461.21 2122.06,1461.21L1529.52,1350.59C1508.01,1350.59 1508.46,1388.64 1508.46,1415.16L1508.46,2266.44C1508.46,2292.97 1504.64,2319.45 1526.15,2319.45L2137.91,2419.7C2159.42,2419.7 2161.04,2387.07 2161.04,2360.54L2161.04,1509.27Z" style="fill:rgb(217,239,251);"/></g><g transform="matrix(0.802971,0,0,0.802971,146.01,-211.005)"><path d="M1461.87,1618.18L1487.49,1503.12L1903.54,1450.53L1923.3,1509.93L1911.25,1610.32L1701.8,1728.51C1668.91,1748.59 1664.93,1739.17 1655.09,1733.3L1461.87,1618.18Z" style="fill:url(#_Linear2);"/></g><g transform="matrix(0.802971,0,0,0.802971,146.01,-211.005)"><path d="M1902.03,1407.15L1895.87,1423.53L1923.3,1509.93L1910.35,1611.8L2185.92,1455.53L2206.48,1360.02L1902.03,1407.15Z" style="fill:url(#_Linear3);"/></g><g transform="matrix(0.802971,0,0,0.802971,146.01,-211.005)"><path d="M2199.94,1284.81L2206.48,1360.02L2183.36,1457.46L2465.5,1300.05L2488.5,1208.69L2199.94,1284.81Z" style="fill:url(#_Linear4);"/></g><g transform="matrix(1.2773,0,0,1.2773,179.758,-666.839)"><g transform="matrix(0.608677,-0.349651,0.644847,0.349213,-56.4499,1171.52)"><rect x="1469.76" y="652.273" width="223.188" height="223.188" style="fill:rgb(235,208,99);"/></g><g transform="matrix(0.120773,-0.0745545,0.133786,0.0842088,993.803,889.358)"><g transform="matrix(2.6279,2.32662,-4.17505,3.76896,4206.8,-6246.41)"><path d="M1193.96,1364.49L1177.87,1374.43L1110.67,1332.13C1110.88,1339.6 1108.46,1346.71 1103.4,1353.48L1087.22,1343.29C1089.89,1339.74 1091.57,1335.11 1092.25,1329.39C1092.92,1323.67 1091.34,1318.46 1087.5,1313.77L1100.56,1305.7L1193.96,1364.49ZM1255.82,1305.66L1272.38,1316.09L1215.96,1350.91C1210.31,1346.6 1206.21,1341.73 1203.66,1336.32C1201.11,1330.9 1199.71,1322.5 1199.46,1311.11C1199.23,1301.91 1198.6,1295.97 1197.58,1293.28C1196.11,1289.6 1193.58,1286.62 1189.98,1284.36C1186.01,1281.86 1181.99,1280.53 1177.92,1280.38C1173.86,1280.22 1170.13,1281.19 1166.73,1283.29C1163.37,1285.37 1161.82,1287.72 1162.07,1290.36C1162.33,1293 1164.9,1296.05 1169.8,1299.51L1151.99,1308.29C1143.13,1301.53 1139.08,1295.24 1139.85,1289.44C1140.62,1283.64 1144.78,1278.41 1152.34,1273.74C1160.63,1268.62 1169.62,1266.16 1179.3,1266.35C1188.99,1266.55 1197.51,1268.96 1204.87,1273.59C1209.06,1276.23 1212.36,1279.15 1214.8,1282.38C1217.23,1285.6 1219.04,1289.42 1220.25,1293.84C1221.05,1296.77 1221.49,1301.43 1221.57,1307.82C1221.66,1314.2 1221.87,1318.34 1222.2,1320.24C1222.54,1322.14 1223.09,1323.86 1223.86,1325.39L1255.82,1305.66Z" style="fill:rgb(249,242,212);fill-rule:nonzero;"/></g><g transform="matrix(2.6279,2.32662,-4.17505,3.76896,4206.8,-6246.41)"><path d="M1090.84,1319.2C1090.04,1317.32 1088.92,1315.51 1087.5,1313.77L1100.56,1305.7L1193.96,1364.49L1186.62,1369.02L1099.23,1314.02L1090.84,1319.2ZM1091.06,1335.38C1091.05,1336.14 1091,1336.92 1090.91,1337.7C1090.61,1340.24 1090.11,1342.57 1089.42,1344.68L1087.22,1343.29C1088.89,1341.08 1090.17,1338.44 1091.06,1335.38ZM1109.72,1340.69C1109.61,1341.14 1109.48,1341.59 1109.34,1342.04C1109.36,1341.51 1109.35,1340.98 1109.34,1340.45L1109.72,1340.69ZM1139.97,1292.99C1139.74,1291.79 1139.7,1290.61 1139.85,1289.44C1140.62,1283.64 1144.78,1278.41 1152.34,1273.74C1160.63,1268.62 1169.62,1266.16 1179.3,1266.35C1188.99,1266.55 1197.51,1268.96 1204.87,1273.59C1209.06,1276.23 1212.36,1279.15 1214.8,1282.38C1217.23,1285.6 1219.04,1289.42 1220.25,1293.84C1221.05,1296.77 1221.49,1301.43 1221.57,1307.82C1221.66,1314.2 1221.87,1318.34 1222.2,1320.24C1222.54,1322.14 1223.09,1323.86 1223.86,1325.39L1255.82,1305.66L1272.38,1316.09L1265.04,1320.62L1254.48,1313.97L1222.52,1333.7C1221.75,1332.17 1221.2,1330.46 1220.87,1328.56C1220.53,1326.65 1220.32,1322.51 1220.24,1316.13C1220.16,1309.75 1219.71,1305.09 1218.91,1302.15C1217.71,1297.73 1215.89,1293.91 1213.46,1290.69C1211.03,1287.47 1207.72,1284.54 1203.53,1281.9C1196.17,1277.27 1187.65,1274.86 1177.96,1274.67C1168.28,1274.47 1159.3,1276.94 1151.01,1282.05C1145.58,1285.4 1141.89,1289.05 1139.97,1292.99ZM1163.17,1293.25C1164.39,1295.16 1166.6,1297.25 1169.8,1299.51L1162.86,1302.93C1161.57,1301.41 1160.86,1299.99 1160.74,1298.67C1160.55,1296.71 1161.36,1294.9 1163.17,1293.25Z" style="fill:rgb(207,140,86);fill-rule:nonzero;"/></g></g><g transform="matrix(0.608677,-0.349651,0.644847,0.349213,-56.4499,1113.61)"><path d="M1265.15,1278.31L1041.39,1281.33L1386.47,954.084L1609.65,954.084L1265.15,1278.31Z" style="fill:rgb(211,167,93);"/></g><g transform="matrix(-0.608677,-0.349651,-0.644847,0.349213,2862.1,1113.61)"><path d="M1274.97,1280.4L1040.52,1279.21L1386.47,954.084L1615.82,958.955L1274.97,1280.4Z" style="fill:rgb(207,140,86);"/></g></g><g transform="matrix(1.2773,0,0,1.2773,-46.6981,-545.001)"><g transform="matrix(0.608677,-0.349651,0.644847,0.349213,-56.4499,1036.39)"><rect x="1469.76" y="652.273" width="223.188" height="223.188" style="fill:rgb(68,174,158);"/></g><g transform="matrix(0.608677,-0.349651,0.644847,0.349213,-56.4499,1113.61)"><path d="M1265.15,1278.31L1041.39,1281.33L1584.96,766.985L1808.14,766.985L1265.15,1278.31Z" style="fill:rgb(63,157,143);"/></g><g transform="matrix(-0.608677,-0.349651,-0.644847,0.349213,2862.1,1113.61)"><path d="M1274.97,1280.4L1040.52,1279.21L1584.69,766.721L1814.05,771.593L1274.97,1280.4Z" style="fill:rgb(5,131,124);"/></g></g><g transform="matrix(1.2773,0,0,1.2773,-273.154,-423.163)"><g transform="matrix(0.608677,-0.349651,0.644847,0.349213,-56.4499,1113.61)"><rect x="1469.76" y="652.273" width="223.188" height="223.188" style="fill:rgb(236,97,152);"/></g><g transform="matrix(0.608677,-0.349651,0.644847,0.349213,-56.4499,1113.61)"><rect x="1469.76" y="652.273" width="223.188" height="223.188" style="fill:rgb(236,97,152);"/></g><g transform="matrix(0.120773,-0.0745545,0.133786,0.0842088,992.257,830.044)"><g transform="matrix(2.6279,2.32662,-4.17505,3.76896,6568.6,-5716.52)"><path d="M617.837,1579.55L599.119,1567.77L564.751,1588.98L549.142,1579.16L526.498,1519.49L540.016,1511.14L599.026,1548.29L609.451,1541.85L625.124,1551.72L614.699,1558.15L633.417,1569.93L617.837,1579.55ZM583.446,1557.9L551.657,1537.89L564.143,1569.82L583.446,1557.9ZM627.825,1543.56L642.023,1532.5C646.5,1534.75 651.039,1535.91 655.64,1536C660.24,1536.09 664.011,1535.22 666.951,1533.41C670.312,1531.34 671.644,1528.63 670.949,1525.29C670.254,1521.94 666.861,1518.36 660.769,1514.52C655.059,1510.93 649.621,1508.94 644.455,1508.57C639.289,1508.2 634.855,1509.16 631.151,1511.45C626.53,1514.3 624.65,1518.28 625.51,1523.39L610.356,1530.14L570.191,1494.57L612.75,1468.3L629.438,1478.8L599.08,1497.54L612.359,1509.05C613.96,1505.58 616.632,1502.69 620.374,1500.38C627.515,1495.97 636.444,1494.05 647.161,1494.6C657.878,1495.16 667.827,1498.33 677.006,1504.1C684.662,1508.92 689.489,1514.46 691.486,1520.72C694.232,1529.25 690.755,1536.51 681.056,1542.5C673.304,1547.29 664.679,1549.74 655.18,1549.85C645.681,1549.97 636.563,1547.87 627.825,1543.56Z" style="fill:rgb(246,178,205);fill-rule:nonzero;"/></g><g transform="matrix(2.6279,2.32662,-4.17505,3.76896,6568.6,-5716.52)"><path d="M555.429,1547.54L551.643,1545.15L564.129,1577.08L583.432,1565.16L577.615,1561.5L564.143,1569.82L555.429,1547.54ZM633.417,1569.93L627.586,1573.53L614.685,1565.41L620.516,1561.81L633.417,1569.93ZM528.728,1525.36L526.498,1519.49L540.016,1511.14L599.026,1548.29L609.451,1541.85L625.124,1551.72L619.293,1555.31L609.437,1549.11L599.012,1555.55L540.003,1518.4L528.728,1525.36ZM670.142,1530.41C670.525,1531.13 670.789,1531.85 670.935,1532.55C671.63,1535.89 670.298,1538.6 666.937,1540.67C663.997,1542.49 660.226,1543.35 655.626,1543.26C651.025,1543.17 646.486,1542.01 642.009,1539.76L633.814,1546.14C631.798,1545.4 629.802,1544.54 627.825,1543.56L642.023,1532.5C646.5,1534.75 651.039,1535.91 655.64,1536C660.24,1536.09 664.011,1535.22 666.951,1533.41C668.383,1532.53 669.447,1531.53 670.142,1530.41ZM603.969,1501.78L612.359,1509.05C613.96,1505.58 616.632,1502.69 620.374,1500.38C627.515,1495.97 636.444,1494.05 647.161,1494.6C657.878,1495.16 667.827,1498.33 677.006,1504.1C684.662,1508.92 689.489,1514.46 691.486,1520.72C692.512,1523.91 692.669,1526.92 691.958,1529.75C691.826,1529.16 691.665,1528.57 691.472,1527.98C689.475,1521.72 684.648,1516.18 676.992,1511.36C667.813,1505.59 657.864,1502.42 647.147,1501.86C636.43,1501.31 627.501,1503.23 620.36,1507.64C616.618,1509.95 613.946,1512.84 612.345,1516.31L599.066,1504.81L603.969,1501.78ZM575.017,1498.85L570.191,1494.57L612.75,1468.3L629.438,1478.8L623.607,1482.4L612.736,1475.56L575.017,1498.85Z" style="fill:rgb(164,51,88);fill-rule:nonzero;"/></g></g><g transform="matrix(0.120773,-0.0745545,0.133786,0.0842088,1167.28,657.963)"><g transform="matrix(2.6279,2.32662,-4.17505,3.76896,4694.1,-5332.61)"><path d="M828.307,1285.19C822.199,1286.53 816.497,1286.72 811.201,1285.74C805.906,1284.76 801.228,1283 797.167,1280.44C790.229,1276.08 786.684,1271.12 786.53,1265.57C786.376,1260.02 790.328,1254.76 798.385,1249.79C806.366,1244.86 814.825,1242.46 823.762,1242.59C832.698,1242.71 840.635,1244.96 847.573,1249.33C851.887,1252.04 854.714,1255.08 856.053,1258.45C857.392,1261.82 857.117,1265.19 855.228,1268.57C861.96,1267 868.526,1266.72 874.927,1267.72C881.328,1268.73 887.13,1270.87 892.333,1274.14C900.92,1279.55 905.427,1285.47 905.854,1291.9C906.281,1298.34 902.39,1304.09 894.18,1309.15C886.543,1313.87 877.964,1316.4 868.443,1316.74C857.203,1317.14 847.014,1314.46 837.877,1308.71C832.843,1305.54 829.348,1301.94 827.392,1297.9C825.436,1293.86 825.741,1289.62 828.307,1285.19ZM852.03,1297.84C856.937,1300.92 861.901,1302.63 866.923,1302.96C871.945,1303.29 876.155,1302.4 879.554,1300.31C882.876,1298.26 884.303,1295.73 883.836,1292.72C883.369,1289.71 880.64,1286.63 875.648,1283.49C871.291,1280.75 866.683,1279.23 861.825,1278.93C856.966,1278.64 852.837,1279.54 849.439,1281.64C845.506,1284.06 844.076,1286.82 845.151,1289.9C846.226,1292.98 848.519,1295.63 852.03,1297.84ZM854.744,1237.7L838.183,1227.28L893.229,1193.3L906.173,1201.44C906.578,1207.36 909.064,1214.69 913.631,1223.42C918.198,1232.15 924.463,1240.56 932.428,1248.64C940.392,1256.72 948.496,1263.34 956.741,1268.48L941.218,1278.06C928.626,1269.8 917.909,1260.07 909.067,1248.86C900.225,1237.65 894.318,1226.4 891.346,1215.11L854.744,1237.7ZM813.672,1271.84C817.225,1274.07 820.903,1275.26 824.705,1275.39C828.507,1275.52 831.916,1274.65 834.933,1272.79C837.988,1270.91 839.427,1268.77 839.251,1266.37C839.075,1263.97 837.21,1261.66 833.657,1259.42C830.315,1257.32 826.732,1256.19 822.909,1256.05C819.086,1255.9 815.685,1256.75 812.707,1258.59C809.614,1260.5 808.166,1262.66 808.363,1265.07C808.561,1267.48 810.33,1269.73 813.672,1271.84Z" style="fill:rgb(166,220,212);fill-rule:nonzero;"/></g><g transform="matrix(2.6279,2.32662,-4.17505,3.76896,4694.1,-5332.61)"><path d="M845.916,1291.64C843.912,1293.59 843.312,1295.71 844.117,1298.02C845.192,1301.1 847.485,1303.75 850.996,1305.95C855.903,1309.04 860.867,1310.75 865.889,1311.08C870.91,1311.41 875.12,1310.52 878.519,1308.42C881.841,1306.37 883.269,1303.84 882.802,1300.84C882.677,1300.04 882.392,1299.23 881.947,1298.42C881.305,1299.09 880.508,1299.72 879.554,1300.31C876.155,1302.4 871.945,1303.29 866.923,1302.96C861.901,1302.63 856.937,1300.92 852.03,1297.84C849.201,1296.06 847.163,1293.99 845.916,1291.64ZM855.606,1268.48C862.205,1266.99 868.646,1266.74 874.927,1267.72C881.328,1268.73 887.13,1270.87 892.333,1274.14C900.92,1279.55 905.427,1285.47 905.854,1291.9C906.007,1294.21 905.606,1296.42 904.65,1298.55C903.68,1292.68 899.23,1287.25 891.299,1282.26C886.096,1278.99 880.294,1276.85 873.893,1275.84C867.491,1274.84 860.925,1275.12 854.194,1276.69C855.725,1273.95 856.196,1271.21 855.606,1268.48ZM826.166,1293.54C826.533,1293.47 826.902,1293.39 827.272,1293.31C826.94,1293.88 826.645,1294.45 826.389,1295.02C826.283,1294.53 826.208,1294.04 826.166,1293.54ZM809.597,1268.24C807.939,1269.75 807.183,1271.4 807.329,1273.18C807.526,1275.59 809.296,1277.85 812.638,1279.95C816.191,1282.19 819.869,1283.38 823.671,1283.51C827.473,1283.64 830.882,1282.77 833.899,1280.91C836.954,1279.03 838.393,1276.88 838.217,1274.49C838.137,1273.41 837.716,1272.35 836.953,1271.3C836.385,1271.81 835.711,1272.31 834.933,1272.79C831.916,1274.65 828.507,1275.52 824.705,1275.39C820.903,1275.26 817.225,1274.07 813.672,1271.84C811.843,1270.68 810.484,1269.49 809.597,1268.24ZM844.183,1231.05L838.183,1227.28L893.229,1193.3L906.173,1201.44C906.578,1207.36 909.064,1214.69 913.631,1223.42C918.198,1232.15 924.463,1240.56 932.428,1248.64C940.392,1256.72 948.496,1263.34 956.741,1268.48L949.889,1272.71C943.641,1268.25 937.476,1262.93 931.393,1256.76C923.429,1248.68 917.163,1240.27 912.596,1231.54C908.029,1222.81 905.543,1215.48 905.138,1209.56L892.194,1201.41L844.183,1231.05ZM786.824,1268.01C786.651,1267.21 786.553,1266.39 786.53,1265.57C786.376,1260.02 790.328,1254.76 798.385,1249.79C806.366,1244.86 814.825,1242.46 823.762,1242.59C832.698,1242.71 840.635,1244.96 847.573,1249.33C851.887,1252.04 854.714,1255.08 856.053,1258.45C857.324,1261.64 857.141,1264.84 855.504,1268.05C855.378,1267.56 855.216,1267.06 855.019,1266.57C853.68,1263.2 850.853,1260.16 846.538,1257.44C839.601,1253.08 831.664,1250.83 822.727,1250.7C813.791,1250.58 805.332,1252.98 797.351,1257.91C792.095,1261.15 788.586,1264.52 786.824,1268.01Z" style="fill:rgb(5,131,124);fill-rule:nonzero;"/></g></g><g transform="matrix(0.608677,-0.349651,0.644847,0.349213,-56.4499,1113.61)"><path d="M1265.15,1278.31L1041.39,1281.33L1469.76,875.461L1692.95,875.461L1265.15,1278.31Z" style="fill:rgb(234,72,124);"/></g><g transform="matrix(-0.608677,-0.349651,-0.644847,0.349213,2862.1,1113.61)"><path d="M1274.97,1280.4L1040.52,1279.21L1469.76,875.461L1699.12,880.333L1274.97,1280.4Z" style="fill:rgb(196,64,107);"/></g></g></g><g transform="matrix(0.960781,0,0,0.960781,55.2933,-356.66)"><g transform="matrix(0.78653,0,0,0.78653,-126.999,109.036)"><path d="M412.243,1222.39L458.511,1188.39C467.748,1191.63 486.316,1196.11 486.316,1196.11C486.316,1196.11 509.228,1183.22 512.193,1175.97C518.786,1159.87 521.857,1157.03 522.676,1117.98C511.149,1143.56 496.966,1136.93 478.858,1147.54C459.154,1159.09 441.86,1159.01 426.975,1147.31C412.09,1135.61 404.174,1113.66 403.225,1081.47C402.237,1047.93 408.986,1016.47 423.472,987.09C437.957,957.713 456.874,936.182 480.222,922.498C505.62,907.612 562.429,906.902 579.479,923.304C596.53,939.705 570.346,979.081 572.097,1038.5C573.878,1098.96 595.838,1150.5 579.657,1187.22C563.476,1223.94 541.131,1263.49 513.911,1279.44C494.321,1290.92 449.773,1277.17 437.295,1270.48C424.817,1263.8 416.466,1247.77 412.243,1222.39ZM679.418,805.747C703.677,791.528 763.771,793.414 778.112,808.267C795.196,825.797 781.632,888.801 783.48,951.526C785.324,1014.1 783.805,1063.75 768.211,1100.74C755.322,1131.25 745.314,1143.04 721.055,1157.26C696.683,1171.55 644.985,1156.94 629.337,1140.94C613.688,1124.94 604.928,1085.2 603.058,1021.73C601.224,959.454 608.103,909.823 623.697,872.834C636.586,842.328 655.159,819.965 679.418,805.747ZM516.814,1020.17C516.211,999.717 512.185,985.933 504.734,978.824C497.284,971.715 476.122,1101.86 485.689,1096.26C494.914,1090.85 502.545,1081.48 508.582,1068.15C514.62,1054.82 517.364,1038.83 516.814,1020.17ZM696.644,856.589C692.001,854.337 652.161,954.158 653.304,992.966C654.448,1031.77 656.714,1057.57 660.103,1070.35C663.491,1083.13 667.506,1090.61 672.147,1092.78C676.787,1094.96 682.012,1094.35 687.82,1090.94C693.629,1087.54 698.739,1082.06 703.15,1074.5C707.562,1066.94 710.834,1056.11 712.968,1042C715.792,1023.82 716.632,995.327 715.489,956.519C714.346,917.711 712.08,891.917 708.691,879.137C705.302,866.357 701.286,858.841 696.644,856.589Z" style="fill:rgb(78,101,155);fill-rule:nonzero;"/></g><g transform="matrix(11.4661,-6.72041,0.446143,15.1435,-15527.1,-3814.12)"><text x="1338.15px" y="921.275px" style="font-family:'Arial-BoldMT', 'Arial', sans-serif;font-weight:700;font-size:24px;fill:rgb(112,154,210);">90</text></g><g transform="matrix(1.23056,1.11022e-16,0,1.23056,-538.639,237.106)"><path d="M833.461,976.806L879.729,942.802C884.225,945.031 912.711,956.945 912.711,956.945C912.711,956.945 928.908,948.588 933.411,930.389C937.592,913.495 943.486,908.927 944.305,869.886C932.778,895.464 918.184,891.343 900.076,901.957C880.372,913.505 863.078,913.427 848.193,901.724C833.308,890.02 825.392,868.074 824.443,835.884C823.455,802.341 830.204,770.881 844.69,741.504C859.175,712.127 878.092,690.596 901.44,676.912C926.838,662.026 977.553,667.52 994.604,683.922C1011.65,700.323 991.564,733.495 993.315,792.911C995.096,853.379 1017.59,911.753 1001.41,948.474C985.226,985.194 961.177,1020.64 933.957,1036.59C914.368,1048.08 870.991,1031.59 858.513,1024.9C846.035,1018.21 837.684,1002.18 833.461,976.806ZM1150.58,908.54L1104.1,895.99L1097.94,686.865C1089.31,703.167 1082.9,751.936 1082.9,751.936C1082.9,751.936 1054.44,746.525 1036.46,741.456L1034.77,683.921C1047.14,671.163 1060.44,652.92 1074.69,629.192C1088.94,605.463 1098.5,581.919 1103.37,558.559L1142.32,535.729L1187.24,548.85L1150.58,908.54ZM938.032,774.588C937.429,754.131 933.403,740.348 925.952,733.238C918.502,726.129 875.875,843.42 882.547,849.685C889.22,855.949 897.34,856.278 906.906,850.671C916.132,845.264 923.763,835.895 929.8,822.563C935.838,809.231 938.582,793.24 938.032,774.588Z" style="fill:rgb(78,101,155);fill-rule:nonzero;"/></g><g transform="matrix(17.9392,-10.5144,0.698009,23.6927,-24123.2,-6197.56)"><text x="1338.15px" y="921.275px" style="font-family:'Arial-BoldMT', 'Arial', sans-serif;font-weight:700;font-size:24px;fill:rgb(112,154,210);">91</text></g></g><g transform="matrix(1,0,0,1,20.8,-100.329)"><g transform="matrix(0.807971,-5.55112e-17,1.73472e-17,0.807971,685.972,312.29)"><path d="M3682.72,1495.61L3647.46,1564.41C3640.35,1566.33 3586.16,1545.7 3586.16,1545.7C3586.16,1545.7 3547.21,1583.9 3557.19,1578.05C3578.7,1565.44 3594.35,1570.93 3613.41,1578.1C3641.7,1588.74 3677.15,1596.77 3684.03,1630.3C3693.4,1675.95 3667.78,1708.1 3659.83,1751.61C3653.53,1786.04 3623.35,1840.68 3598.06,1855.51C3570.94,1871.41 3506.26,1834.32 3487.97,1816.72C3469.68,1799.13 3459.6,1758.62 3457.73,1695.2C3455.81,1630.16 3463.53,1577.95 3480.89,1538.56C3498.25,1499.16 3521.47,1470.94 3550.55,1453.89C3570.96,1441.94 3587.06,1441.98 3601.9,1446.83C3626.06,1454.71 3678.21,1469.03 3682.72,1495.61ZM3550.61,1632.88C3540.71,1638.68 3547.1,1767.17 3557,1761.37C3566.53,1755.78 3574.33,1746.2 3580.39,1732.64C3586.46,1719.07 3589.16,1701.07 3588.5,1678.64C3587.82,1655.56 3575.48,1685.34 3568.32,1678.62C3561.16,1671.9 3560.87,1626.87 3550.61,1632.88ZM3663.12,1458.59L3661.26,1395.41L3837.39,1292.18L3904.06,1324.68C3890.08,1352.08 3874.93,1374.39 3860.94,1418.54C3846.96,1462.69 3817.81,1545.82 3811.1,1590.21C3804.39,1634.61 3774.98,1723.45 3776.03,1754.69L3707.68,1724.27C3707.09,1674.71 3713.28,1620.19 3726.26,1560.71C3739.23,1501.23 3750.28,1471 3773.29,1416.64L3730.67,1489.48L3663.12,1458.59Z" style="fill:rgb(78,101,155);fill-rule:nonzero;"/></g><g transform="matrix(12.6366,-7.40646,0.491687,16.6895,-13838,-3610.11)"><text x="1338.15px" y="921.275px" style="font-family:'Arial-BoldMT', 'Arial', sans-serif;font-weight:700;font-size:24px;fill:rgb(112,154,210);">67</text></g></g><g transform="matrix(0.75446,0,0,0.75446,2614.7,615.698)"><g transform="matrix(1.24944,0,0,1.08723,-95.3887,-63.5087)"><path d="M526.277,1139.14L527.553,1064.58C542.613,1072.15 565.06,1043.89 555.427,1049.84C549.084,1053.76 534.786,1058.21 528.708,1065.37L497.559,1034.94C500.332,1011.58 503.443,987.856 501.9,986.271C493.964,978.118 482.008,976.973 471.114,976.56C460.219,976.147 448.854,979.915 448.854,979.915C448.854,979.915 447.417,1008.84 447.569,1028.09L393.342,1050.85C379.207,1038 370.168,1026.34 366.225,1015.88C362.282,1005.42 360.079,928.632 365.612,917.835C371.144,907.038 393.306,970.592 398.229,954.63C409.089,919.419 440.753,875.163 480.45,888.674C506.604,890.05 531.558,937.189 549.255,948.329C574.37,964.137 606.438,938.871 596.617,963.591C614.932,956.666 629.228,983.392 650.329,985.616C671.43,987.84 670.641,1016.03 687.948,1026.92C700.776,1035 719.177,1013.95 725.749,1023.47C732.044,1032.6 726.767,1072.23 727.322,1082.68C728.456,1104.05 716.688,1122.34 692.019,1137.57C668.642,1152 641.81,1159.28 611.521,1159.4C581.233,1159.52 552.818,1152.77 526.277,1139.14ZM901.76,1002.01L844.178,965.77L738.454,1031.03L690.436,1000.81L620.779,817.247L621.392,741.187L673.743,765.109L843.465,876.44L860.884,856.271L921.741,840.142L922.245,890.654L895.018,909.483L948.832,896.587L949.688,972.427L901.76,1002.01ZM779.526,912.345L737.774,905.007L698.173,873.87L735.215,936.685L779.526,912.345Z" style="fill:rgb(78,101,155);fill-rule:nonzero;"/></g><g transform="matrix(0.738416,-0.396653,0.817978,0.448016,-1768.54,961.751)"><text x="1407.28px" y="1674.2px" style="font-family:'Arial-BoldMT', 'Arial', sans-serif;font-weight:700;font-size:610.616px;fill:rgb(113,154,210);">34</text></g></g><g transform="matrix(0.810406,0,0,0.810406,364.15,635.886)"><g transform="matrix(0.794392,-0.440686,0.800308,0.481698,-1116.04,2045.83)"><path d="M3676.48,1195.2C3676.48,1177.14 3663.41,1162.47 3647.32,1162.47L2758.19,1116.88C2742.1,1116.88 2689.16,1177.14 2689.16,1195.2L2689.16,2462.15C2689.16,2480.21 2702.23,2494.88 2718.33,2494.88L3647.32,2494.88C3663.41,2494.88 3721.74,2436.44 3721.74,2418.38L3676.48,1195.2Z" style="fill:rgb(64,103,177);"/></g><g transform="matrix(0.794392,-0.440686,0.800308,0.481698,-1117,2002.17)"><path d="M3676.48,1195.2C3676.48,1177.14 3663.41,1162.47 3647.32,1162.47L2718.33,1162.47C2702.23,1162.47 2689.16,1177.14 2689.16,1195.2L2689.16,2462.15C2689.16,2480.21 2702.23,2494.88 2718.33,2494.88L3647.32,2494.88C3663.41,2494.88 3676.48,2480.21 3676.48,2462.15L3676.48,1195.2Z" style="fill:rgb(45,69,132);"/></g><g transform="matrix(0.700271,-0.388472,0.742708,0.447029,-700.134,1894.95)"><path d="M3676.48,1195.2C3676.48,1177.14 3663.41,1162.47 3647.32,1162.47L2718.33,1162.47C2702.23,1162.47 2689.16,1177.14 2689.16,1195.2L2689.16,2462.15C2689.16,2480.21 2702.23,2494.88 2718.33,2494.88L3647.32,2494.88C3663.41,2494.88 3676.48,2480.21 3676.48,2462.15L3676.48,1195.2Z" style="fill:rgb(142,187,229);"/></g><g transform="matrix(1.2512,-0.706097,1.38328,0.856003,-3112.73,1636.17)"><path d="M2832.67,1689.66C2832.67,1677.21 2822.65,1667.1 2810.3,1667.1L2398.01,1667.1C2385.66,1667.1 2375.64,1677.21 2375.64,1689.66L2375.64,1837.58C2375.64,1850.03 2385.66,1860.14 2398.01,1860.14L2810.3,1860.14C2822.65,1860.14 2832.67,1850.03 2832.67,1837.58L2832.67,1689.66Z" style="fill:rgb(217,239,251);"/></g><g transform="matrix(1.23395,0,0,1.23395,-449.343,-784.651)"><path d="M2487.76,1619.79C2489.01,1603.83 2499.6,1588.19 2519.41,1576.44C2560.37,1552.13 2625.28,1553.56 2664.28,1579.62C2703.28,1605.67 2701.7,1646.57 2660.74,1670.87C2629.31,1689.53 2583.75,1693.02 2546.64,1681.85L2558.16,1661.85C2583.55,1670.39 2615.63,1668.35 2637.53,1655.36C2665.02,1639.04 2666.09,1611.58 2639.9,1594.09C2613.72,1576.59 2570.13,1575.63 2542.63,1591.95C2529.29,1599.87 2522.17,1610.41 2521.37,1621.17L2487.76,1619.79Z" style="fill:rgb(64,103,177);"/></g><g transform="matrix(1.2512,-0.706097,1.38328,0.856003,-2804.3,1836.43)"><path d="M2832.67,1689.66C2832.67,1677.21 2822.65,1667.1 2810.3,1667.1L2398.01,1667.1C2385.66,1667.1 2375.64,1677.21 2375.64,1689.66L2375.64,1837.58C2375.64,1850.03 2385.66,1860.14 2398.01,1860.14L2810.3,1860.14C2822.65,1860.14 2832.67,1850.03 2832.67,1837.58L2832.67,1689.66Z" style="fill:rgb(217,239,251);"/></g><g transform="matrix(1.06525,-0.622794,1.20872,0.72269,-1781.2,2009.19)"><path d="M2847.38,1733.13C2847.38,1730.81 2845.49,1728.93 2843.17,1728.93L2407.07,1728.93C2404.75,1728.93 2402.87,1730.81 2402.87,1733.13L2402.87,1741.54C2402.87,1743.86 2404.75,1745.74 2407.07,1745.74L2843.17,1745.74C2845.49,1745.74 2847.38,1743.86 2847.38,1741.54L2847.38,1733.13Z" style="fill:rgb(64,103,177);"/></g><g transform="matrix(1.06525,-0.622794,1.20872,0.72269,-1735.21,2036.68)"><path d="M2847.38,1733.13C2847.38,1730.81 2845.49,1728.93 2843.17,1728.93L2407.07,1728.93C2404.75,1728.93 2402.87,1730.81 2402.87,1733.13L2402.87,1741.54C2402.87,1743.86 2404.75,1745.74 2407.07,1745.74L2843.17,1745.74C2845.49,1745.74 2847.38,1743.86 2847.38,1741.54L2847.38,1733.13Z" style="fill:rgb(64,103,177);"/></g><g transform="matrix(1.06525,-0.622794,1.20872,0.72269,-1689.22,2064.18)"><path d="M2847.38,1733.13C2847.38,1730.81 2845.49,1728.93 2843.17,1728.93L2407.07,1728.93C2404.75,1728.93 2402.87,1730.81 2402.87,1733.13L2402.87,1741.54C2402.87,1743.86 2404.75,1745.74 2407.07,1745.74L2843.17,1745.74C2845.49,1745.74 2847.38,1743.86 2847.38,1741.54L2847.38,1733.13Z" style="fill:rgb(64,103,177);"/></g><g transform="matrix(1.06525,-0.622794,1.20872,0.72269,-1643.23,2091.67)"><path d="M2692.41,1733.13C2692.41,1730.81 2690.53,1728.93 2688.21,1728.93L2407.07,1728.93C2404.75,1728.93 2402.87,1730.81 2402.87,1733.13L2402.87,1741.54C2402.87,1743.86 2404.75,1745.74 2407.07,1745.74L2688.21,1745.74C2690.53,1745.74 2692.41,1743.86 2692.41,1741.54L2692.41,1733.13Z" style="fill:rgb(64,103,177);"/></g><g transform="matrix(1.23395,0,0,1.23395,-449.343,-784.651)"><path d="M2792.91,1722.17L2804.8,1742.23C2799.47,1744 2794.42,1746.24 2789.83,1748.97C2762.33,1765.29 2761.26,1792.74 2787.45,1810.24C2813.64,1827.74 2857.22,1828.69 2884.72,1812.38C2899.78,1803.44 2906.91,1791.15 2905.98,1779L2939.72,1781.28C2939.74,1798.35 2929.09,1815.33 2907.94,1827.89C2866.98,1852.19 2802.07,1850.77 2763.07,1824.71C2724.07,1798.65 2725.65,1757.76 2766.61,1733.46C2774.59,1728.72 2783.48,1724.96 2792.91,1722.17Z" style="fill:rgb(64,103,177);"/></g><path d="M2067.66,1382.55C2068.06,1382.3 2068.47,1382.05 2068.9,1381.81L2719.44,1020.93C2730.72,1014.67 2750.76,1016.15 2764.18,1024.23L3705.15,1590.59C3706.23,1591.25 3707.24,1591.92 3708.18,1592.62C3718.06,1586.22 3715.96,1575.16 3703.06,1567.4L2762.08,1001.03C2748.67,992.958 2728.62,991.479 2717.35,997.732L2066.81,1358.62C2056.45,1364.37 2057.08,1374.65 2067.66,1382.55Z" style="fill:rgb(217,239,251);"/></g><g transform="matrix(0.2014,-0.120118,0.218892,0.14249,1698.13,1748.47)"><text x="1407.28px" y="1674.2px" style="font-family:'Arial-BoldMT', 'Arial', sans-serif;font-weight:700;font-size:610.616px;fill:rgb(234,72,124);">74</text></g><g transform="matrix(0.202182,-0.118797,0.221259,0.141978,1929.95,1907)"><text x="1407.28px" y="1674.2px" style="font-family:'Arial-BoldMT', 'Arial', sans-serif;font-weight:700;font-size:610.616px;fill:rgb(5,131,124);">28</text></g><g transform="matrix(3.04843,0,0,3.04843,-8125.75,-1503.97)"><g id="path29356" transform="matrix(-0.355556,0,0,-0.355556,4016.15,1933.62)"><path d="M2594.79,3439.63L1992.76,3787.22C1985.77,3791.25 1978.66,3791.88 1972.36,3789.72L1972.39,3789.78L1971.29,3789.37L1971.03,3789.27L1949.27,3780.94L1968.8,3771.38L1968.52,3770.32L1862.14,3286.56C1857.24,3264.21 1867.07,3238.14 1884.1,3228.3L2471.66,2889.08L2469.56,2864.17L2493.33,2873.39C2501.32,2877.13 2507.72,2885.58 2510.37,2897.61L2616.74,3381.38C2621.66,3403.71 2611.82,3429.8 2594.79,3439.63" style="fill:rgb(38,60,122);fill-rule:nonzero;"/></g><g id="path29358" transform="matrix(-0.355556,0,0,-0.355556,4016.15,1933.62)"><path d="M2594.79,3439.63L1992.76,3787.22C1985.77,3791.25 1978.66,3791.88 1972.36,3789.72L1972.39,3789.78L1971.29,3789.37L1971.03,3789.27L1949.27,3780.94L1968.8,3771.38L1968.52,3770.32L1895.58,3438.75L2190.15,3209.24L2613.81,3415.64C2609.82,3425.98 2603.19,3434.79 2594.79,3439.63" style="fill:rgb(64,103,177);fill-rule:nonzero;"/></g><g id="path29360" transform="matrix(-0.355556,0,0,-0.355556,4016.15,1933.62)"><path d="M2572.09,3371.02L2617.92,3390.53C2618.76,3408.28 2611.41,3426.62 2599.35,3436.42L2526.81,3405.9L2572.09,3371.02" style="fill:rgb(46,75,141);fill-rule:nonzero;"/></g><g id="path29362" transform="matrix(-0.355556,0,0,-0.355556,4016.15,1933.62)"><path d="M2448.65,2866.55L1846.61,3214.14C1829.58,3223.96 1819.75,3250.04 1824.65,3272.39L1931.03,3756.15C1935.94,3778.48 1953.73,3788.63 1970.76,3778.79L2572.79,3431.21C2589.82,3421.37 2599.65,3395.29 2594.74,3372.95L2488.36,2889.18C2483.46,2866.85 2465.68,2856.71 2448.65,2866.55" style="fill:rgb(217,239,251);fill-rule:nonzero;"/></g><g id="path293621" serif:id="path29362" transform="matrix(-0.355556,0,0,-0.355556,4016.15,1933.62)"><path d="M2448.65,2866.55L1846.61,3214.14C1829.58,3223.96 1819.75,3250.04 1824.65,3272.39L1931.03,3756.15C1935.94,3778.48 1953.73,3788.63 1970.76,3778.79L2572.79,3431.21C2589.82,3421.37 2599.65,3395.29 2594.74,3372.95L2488.36,2889.18C2483.46,2866.85 2465.68,2856.71 2448.65,2866.55" style="fill:url(#_Linear5);fill-rule:nonzero;"/></g><g id="path29364" transform="matrix(-0.355556,0,0,-0.355556,4016.15,1933.62)"><path d="M2578.57,3433.32L1976.54,3780.9C1968.29,3785.67 1959.89,3785.66 1952.83,3781.94C1958.49,3783.17 1964.66,3782.31 1970.76,3778.79L2572.79,3431.21C2589.82,3421.37 2599.65,3395.29 2594.74,3372.95L2488.36,2889.19C2485.83,2877.67 2479.86,2869.49 2472.35,2865.52C2482.51,2867.74 2490.99,2876.96 2494.15,2891.3L2600.52,3375.06C2605.43,3397.41 2595.6,3423.49 2578.57,3433.32" style="fill:white;fill-rule:nonzero;"/></g><g id="path29366" transform="matrix(-0.355556,0,0,-0.355556,4016.15,1933.62)"><path d="M2435.59,2899.75L1869.39,3226.49C1853.8,3235.48 1844.81,3259.35 1849.3,3279.79L1947.35,3725.65C1951.84,3746.09 1968.12,3755.37 1983.7,3746.37L2549.91,3419.63C2565.49,3410.64 2574.49,3386.77 2570,3366.32L2471.95,2920.47C2467.46,2900.02 2451.18,2890.75 2435.59,2899.75" style="fill:white;fill-rule:nonzero;"/></g><g id="path29368" transform="matrix(-0.355556,0,0,-0.355556,4016.15,1933.62)"><path d="M2435.59,2899.75L1869.39,3226.49C1853.8,3235.48 1844.81,3259.35 1849.3,3279.79L1947.35,3725.65C1951.84,3746.09 1968.12,3755.37 1983.7,3746.37L2549.91,3419.63C2565.49,3410.64 2574.49,3386.77 2570,3366.32L2471.95,2920.47C2467.46,2900.02 2451.18,2890.75 2435.59,2899.75" style="fill:rgb(142,187,229);fill-rule:nonzero;"/></g><g id="path29370" transform="matrix(-0.355556,0,0,-0.355556,4016.15,1933.62)"><path d="M2440.53,2901.75L1874.32,3228.49C1858.74,3237.5 1849.75,3261.36 1854.23,3281.8L1952.29,3727.66C1954.56,3738 1959.86,3745.45 1966.55,3749.16C1957.57,3746.85 1950.16,3738.43 1947.35,3725.65L1849.3,3279.79C1844.81,3259.35 1853.8,3235.48 1869.39,3226.49L2435.59,2899.75C2443.29,2895.3 2451.15,2895.35 2457.67,2898.97C2452.3,2897.58 2446.36,2898.38 2440.53,2901.75" style="fill:rgb(95,146,211);fill-rule:nonzero;"/></g><g id="path29372" transform="matrix(-0.355556,0,0,-0.355556,4016.15,1933.62)"><path d="M2456.96,2851.41L2374.66,2862.27L1843.43,3168.98C1826.4,3178.81 1796.66,3177.57 1776.99,3166.23L1400.56,2948.97L1350.81,2955.54L1350.81,2927.31L1350.85,2927.3C1350.52,2920.78 1354.24,2914.51 1362.28,2909.87L1964.31,2562.28C1981.34,2552.45 2011.09,2553.68 2030.76,2565.03L2440.7,2801.64C2451.76,2808.02 2457.28,2816.25 2456.96,2823.98L2456.96,2851.41" style="fill:rgb(38,60,122);fill-rule:nonzero;"/></g><g id="path29374" transform="matrix(-0.355556,0,0,-0.355556,4016.15,1933.62)"><path d="M2057.81,3045.21L2020.07,3067L1605.12,3067L1400.56,2948.97L1350.81,2955.54L1350.81,2927.31L1350.85,2927.3C1350.52,2920.78 1354.24,2914.51 1362.28,2909.87L1964.31,2562.28C1973.32,2557.08 1985.86,2555 1998.61,2555.85L2057.81,3045.21" style="fill:rgb(64,103,177);fill-rule:nonzero;"/></g><g id="path29376" transform="matrix(-0.355556,0,0,-0.355556,4016.15,1933.62)"><path d="M1372.89,2952.63L1350.81,2955.54L1350.81,2927.31L1350.85,2927.3C1350.52,2920.78 1354.24,2914.51 1362.28,2909.87L1372.89,2903.74L1372.89,2952.63" style="fill:rgb(95,146,211);fill-rule:nonzero;"/></g><g id="path29380" transform="matrix(-0.355556,0,0,-0.355556,4016.15,1933.62)"><path d="M1964.31,2590.47L1362.28,2938.06C1345.25,2947.9 1347.38,2965.07 1367.05,2976.43L1776.99,3213.03C1796.66,3224.38 1826.4,3225.61 1843.43,3215.79L2445.47,2868.2C2462.5,2858.36 2460.37,2841.19 2440.7,2829.83L2030.76,2593.24C2011.09,2581.88 1981.34,2580.65 1964.31,2590.47" style="fill:rgb(217,239,251);fill-rule:nonzero;"/></g><g id="path293801" serif:id="path29380" transform="matrix(-0.355556,0,0,-0.355556,4016.15,1933.62)"><path d="M1964.31,2590.47L1362.28,2938.06C1345.25,2947.9 1347.38,2965.07 1367.05,2976.43L1776.99,3213.03C1796.66,3224.38 1826.4,3225.61 1843.43,3215.79L2445.47,2868.2C2462.5,2858.36 2460.37,2841.19 2440.7,2829.83L2030.76,2593.24C2011.09,2581.88 1981.34,2580.65 1964.31,2590.47" style="fill:url(#_Linear6);fill-rule:nonzero;"/></g><g transform="matrix(0.281273,-0.168801,0.323113,0.188666,2322.83,1040.14)"><path d="M2364.38,1305.91C2364.38,1291.07 2352.33,1279.01 2337.49,1279.01L2071.08,1279.01C2056.24,1279.01 2044.18,1291.07 2044.18,1305.91L2044.18,1412.28C2044.18,1427.12 2056.24,1439.17 2071.08,1439.17L2337.49,1439.17C2352.33,1439.17 2364.38,1427.12 2364.38,1412.28L2364.38,1305.91Z" style="fill:rgb(150,211,244);"/></g><g id="path29382" transform="matrix(-0.355556,0,0,-0.355556,4016.15,1933.62)"><path d="M2440.7,2840.15L2030.76,2603.55C2011.09,2592.19 1981.34,2590.96 1964.31,2600.79L1362.28,2948.37C1356.69,2951.6 1353.21,2955.62 1351.69,2959.96C1349.03,2951.9 1352.43,2943.75 1362.28,2938.06L1964.31,2590.47C1981.34,2580.65 2011.09,2581.88 2030.76,2593.23L2440.7,2829.83C2453.92,2837.47 2459.17,2847.72 2456.06,2856.62C2454.12,2850.75 2448.99,2844.93 2440.7,2840.15" style="fill:white;fill-rule:nonzero;"/></g><g id="path29384" transform="matrix(0.347947,0,0,0.347947,2947.26,216.397)"><path d="M840.331,2124.7L809.328,2142.61C807.488,2143.66 807.713,2145.51 809.839,2146.74L823.276,2154.49C825.391,2155.72 828.59,2155.84 830.419,2154.79L861.422,2136.89C863.262,2135.82 863.037,2133.98 860.922,2132.77L847.474,2125C845.359,2123.78 842.17,2123.64 840.331,2124.7ZM883.668,2099.68L852.665,2117.57C850.836,2118.63 851.071,2120.48 853.186,2121.71L866.624,2129.47C868.729,2130.69 871.937,2130.82 873.767,2129.76L904.78,2111.86C906.599,2110.8 906.374,2108.96 904.259,2107.73L890.821,2099.97C888.706,2098.76 885.508,2098.63 883.668,2099.68ZM788.553,2124.13L870.537,2076.8C872.775,2075.51 872.489,2073.25 869.914,2071.77L842.334,2055.84C839.749,2054.36 835.845,2054.2 833.617,2055.48L751.633,2102.82C749.395,2104.1 749.681,2106.36 752.267,2107.84L779.847,2123.77C782.422,2125.26 786.325,2125.43 788.553,2124.13ZM926.658,2074.87L895.655,2092.76C893.816,2093.81 894.051,2095.67 896.166,2096.89L909.603,2104.66C911.719,2105.87 914.927,2105.99 916.746,2104.94L947.76,2087.04C949.589,2085.99 949.364,2084.14 947.249,2082.92L933.801,2075.15C931.686,2073.94 928.487,2073.8 926.658,2074.87ZM746.217,2100.26L806.947,2065.19C809.185,2063.9 808.909,2061.66 806.334,2060.16L778.753,2044.24C776.168,2042.75 772.265,2042.59 770.027,2043.87L709.297,2078.95C707.059,2080.23 707.335,2082.49 709.92,2083.97L737.49,2099.9C740.076,2101.39 743.979,2101.56 746.217,2100.26ZM960.472,2079.7L988.297,2063.64C990.535,2062.34 990.259,2060.08 987.684,2058.6L954.821,2039.62C952.246,2038.14 948.332,2037.98 946.094,2039.27L918.269,2055.33C916.031,2056.63 916.307,2058.89 918.892,2060.38L951.745,2079.34C954.33,2080.84 958.234,2080.99 960.472,2079.7ZM704.372,2076.1L732.207,2060.03C734.445,2058.74 734.159,2056.49 731.584,2054.99L704.004,2039.08C701.419,2037.59 697.515,2037.43 695.287,2038.72L667.452,2054.79C665.214,2056.07 665.5,2058.32 668.065,2059.82L695.655,2075.75C698.241,2077.23 702.134,2077.4 704.372,2076.1ZM885.978,2067.89L913.803,2051.82C916.041,2050.54 915.765,2048.28 913.19,2046.8L885.61,2030.87C883.025,2029.37 879.121,2029.21 876.883,2030.51L849.048,2046.57C846.82,2047.86 847.096,2050.12 849.681,2051.61L877.251,2067.53C879.836,2069.02 883.74,2069.19 885.978,2067.89ZM822.632,2056.15L850.468,2040.07C852.706,2038.78 852.42,2036.53 849.855,2035.04L822.264,2019.11C819.679,2017.62 815.786,2017.46 813.548,2018.75L785.712,2034.83C783.474,2036.12 783.761,2038.37 786.346,2039.86L813.916,2055.78C816.501,2057.27 820.405,2057.43 822.632,2056.15ZM1001.88,2055.79L1046.4,2030.09C1048.64,2028.8 1048.35,2026.54 1045.78,2025.06L1012.92,2006.09C1010.35,2004.6 1006.44,2004.43 1004.21,2005.73L959.695,2031.43C957.457,2032.73 957.733,2034.96 960.308,2036.47L993.172,2055.43C995.747,2056.92 999.66,2057.08 1001.88,2055.79ZM662.526,2051.94L713.793,2022.35C716.031,2021.06 715.745,2018.8 713.17,2017.32L685.58,2001.39C683.005,1999.9 679.101,1999.74 676.863,2001.03L625.606,2030.63C623.368,2031.91 623.655,2034.17 626.23,2035.67L653.81,2051.58C656.395,2053.08 660.299,2053.24 662.526,2051.94ZM747.362,2051.28L775.197,2035.22C777.435,2033.93 777.149,2031.67 774.564,2030.18L746.984,2014.26C744.408,2012.77 740.505,2012.61 738.277,2013.9L710.431,2029.97C708.194,2031.25 708.48,2033.51 711.055,2034.99L738.645,2050.93C741.22,2052.41 745.124,2052.58 747.362,2051.28ZM928.968,2043.07L956.793,2027C959.031,2025.72 958.755,2023.46 956.17,2021.98L928.6,2006.05C926.015,2004.56 922.111,2004.39 919.873,2005.69L892.027,2021.75C889.8,2023.04 890.086,2025.3 892.661,2026.8L920.241,2042.71C922.826,2044.21 926.73,2044.37 928.968,2043.07ZM865.622,2031.33L893.458,2015.26C895.696,2013.96 895.42,2011.71 892.835,2010.21L865.254,1994.29C862.669,1992.8 858.776,1992.65 856.538,1993.94L828.692,2010.01C826.454,2011.3 826.75,2013.56 829.326,2015.04L856.906,2030.97C859.491,2032.45 863.395,2032.61 865.622,2031.33ZM790.341,2026.46L818.187,2010.4C820.415,2009.11 820.129,2006.85 817.554,2005.36L789.973,1989.44C787.388,1987.96 783.485,1987.78 781.257,1989.08L753.421,2005.15C751.183,2006.43 751.47,2008.69 754.055,2010.19L781.625,2026.1C784.21,2027.6 788.114,2027.76 790.341,2026.46ZM1212.63,1885.39L1212.63,1885.39L1185.06,1901.31L1168.41,1910.92C1168.38,1910.94 1168.34,1910.96 1168.31,1910.98L1019.09,1997.13C1016.69,1998.52 1016.69,2000.77 1019.09,2002.15L1052.58,2021.5C1054.99,2022.88 1058.89,2022.88 1061.29,2021.5L1227.26,1925.67L1255.14,1909.58C1257.37,1908.29 1257.09,1906.04 1254.5,1904.55L1221.65,1885.58C1219.07,1884.09 1215.17,1883.92 1212.93,1885.22L1212.63,1885.39ZM971.947,2018.26L999.783,2002.18C1002.02,2000.89 1001.75,1998.65 999.16,1997.15L971.58,1981.23C969.004,1979.74 965.091,1979.57 962.853,1980.87L935.017,1996.94C932.79,1998.23 933.065,2000.48 935.651,2001.98L963.231,2017.89C965.806,2019.39 969.71,2019.55 971.947,2018.26ZM727.006,2014.72L754.852,1998.66C757.08,1997.36 756.793,1995.1 754.218,1993.61L726.638,1977.69C724.053,1976.2 720.149,1976.04 717.911,1977.33L690.086,1993.4C687.848,1994.69 688.124,1996.95 690.709,1998.43L718.29,2014.36C720.865,2015.84 724.768,2016.01 727.006,2014.72ZM649.038,2008.95L676.873,1992.87C679.111,1991.59 678.825,1989.33 676.25,1987.85L667.135,1982.57C664.55,1981.09 660.646,1980.93 658.408,1982.22L630.583,1998.28C628.345,1999.58 628.621,2001.84 631.206,2003.33L640.321,2008.58C642.906,2010.08 646.8,2010.23 649.038,2008.95ZM908.612,2006.51L936.448,1990.44C938.686,1989.14 938.41,1986.88 935.824,1985.4L908.234,1969.47C905.659,1967.99 901.755,1967.83 899.518,1969.12L871.682,1985.19C869.444,1986.48 869.73,1988.73 872.315,1990.22L899.896,2006.15C902.471,2007.64 906.374,2007.79 908.612,2006.51ZM833.331,2001.65L861.167,1985.58C863.405,1984.29 863.119,1982.04 860.533,1980.55L832.963,1964.63C830.378,1963.14 826.475,1962.96 824.247,1964.26L796.401,1980.34C794.173,1981.62 794.459,1983.87 797.035,1985.37L824.615,2001.28C827.2,2002.78 831.104,2002.95 833.331,2001.65ZM1014.94,1993.43L1042.76,1977.37C1045,1976.08 1044.72,1973.83 1042.15,1972.33L1014.57,1956.41C1011.98,1954.92 1008.08,1954.76 1005.84,1956.06L978.017,1972.12C975.779,1973.41 976.055,1975.66 978.63,1977.16L1006.21,1993.08C1008.8,1994.57 1012.7,1994.73 1014.94,1993.43ZM769.996,1989.9L797.832,1973.84C800.059,1972.54 799.783,1970.28 797.198,1968.8L769.628,1952.87C767.043,1951.38 763.139,1951.22 760.901,1952.51L733.076,1968.58C730.838,1969.87 731.114,1972.13 733.689,1973.61L761.279,1989.54C763.855,1991.03 767.758,1991.19 769.996,1989.9ZM691.629,1984.35L719.475,1968.29C721.703,1967 721.427,1964.74 718.841,1963.25L709.726,1957.99C707.151,1956.51 703.237,1956.33 701.01,1957.63L673.164,1973.69C670.936,1974.98 671.212,1977.24 673.798,1978.73L682.923,1983.99C685.498,1985.49 689.391,1985.65 691.629,1984.35ZM951.602,1981.68L979.427,1965.62C981.665,1964.32 981.389,1962.07 978.814,1960.58L951.224,1944.65C948.639,1943.17 944.745,1943.01 942.507,1944.29L914.672,1960.38C912.444,1961.65 912.72,1963.91 915.295,1965.4L942.875,1981.33C945.461,1982.82 949.364,1982.97 951.602,1981.68ZM876.311,1976.83L904.157,1960.77C906.395,1959.48 906.109,1957.22 903.523,1955.73L875.943,1939.81C873.368,1938.32 869.454,1938.15 867.227,1939.45L839.391,1955.51C837.153,1956.8 837.439,1959.06 840.024,1960.55L867.605,1976.47C870.18,1977.95 874.083,1978.13 876.311,1976.83ZM1057.92,1968.61L1085.75,1952.55C1087.99,1951.26 1087.71,1949 1085.13,1947.52L1057.55,1931.59C1054.97,1930.11 1051.07,1929.94 1048.83,1931.23L1021,1947.3C1018.76,1948.59 1019.03,1950.84 1021.62,1952.34L1049.2,1968.26C1051.78,1969.75 1055.69,1969.91 1057.92,1968.61ZM812.976,1965.08L840.822,1949.01C843.049,1947.72 842.773,1945.47 840.188,1943.98L812.608,1928.05C810.033,1926.56 806.119,1926.4 803.881,1927.69L776.056,1943.77C773.818,1945.05 774.094,1947.31 776.679,1948.8L804.269,1964.72C806.844,1966.21 810.738,1966.37 812.976,1965.08ZM734.231,1959.76L762.066,1943.7C764.294,1942.4 764.018,1940.14 761.433,1938.66L752.328,1933.4C749.743,1931.9 745.839,1931.75 743.601,1933.03L715.755,1949.11C713.538,1950.39 713.814,1952.65 716.389,1954.13L725.514,1959.41C728.089,1960.89 731.993,1961.05 734.231,1959.76ZM994.592,1956.87L1022.42,1940.8C1024.65,1939.51 1024.38,1937.25 1021.79,1935.76L994.204,1919.84C991.639,1918.35 987.735,1918.19 985.497,1919.48L957.652,1935.56C955.424,1936.84 955.7,1939.09 958.285,1940.58L985.865,1956.52C988.44,1958 992.354,1958.16 994.592,1956.87ZM919.301,1952.01L947.137,1935.94C949.374,1934.66 949.088,1932.4 946.513,1930.92L918.933,1914.99C916.348,1913.51 912.454,1913.33 910.216,1914.63L882.381,1930.69C880.143,1931.98 880.429,1934.24 883.004,1935.73L910.584,1951.65C913.17,1953.14 917.073,1953.31 919.301,1952.01ZM1100.91,1943.79L1128.74,1927.73C1130.97,1926.44 1130.69,1924.18 1128.12,1922.7L1100.54,1906.77C1097.95,1905.29 1094.05,1905.12 1091.81,1906.41L1063.99,1922.49C1061.75,1923.76 1062.03,1926.02 1064.61,1927.53L1092.18,1943.43C1094.77,1944.94 1098.67,1945.09 1100.91,1943.79ZM855.966,1940.27L883.801,1924.19C886.039,1922.91 885.753,1920.65 883.178,1919.16L855.598,1903.24C853.012,1901.74 849.109,1901.59 846.881,1902.88L819.046,1918.95C816.808,1920.24 817.084,1922.49 819.659,1923.98L847.249,1939.91C849.834,1941.39 853.728,1941.56 855.966,1940.27ZM776.822,1935.18L804.658,1919.09C806.885,1917.81 806.609,1915.56 804.034,1914.07L794.919,1908.8C792.334,1907.31 788.43,1907.16 786.193,1908.44L758.357,1924.51C756.129,1925.81 756.405,1928.06 758.99,1929.55L768.106,1934.81C770.681,1936.3 774.584,1936.47 776.822,1935.18ZM1037.57,1932.05L1065.4,1915.99C1067.63,1914.69 1067.36,1912.43 1064.78,1910.95L1037.2,1895.02C1034.62,1893.53 1030.71,1893.37 1028.48,1894.66L1000.64,1910.74C998.414,1912.02 998.69,1914.28 1001.27,1915.76L1028.85,1931.69C1031.43,1933.18 1035.33,1933.34 1037.57,1932.05ZM962.291,1927.19L990.126,1911.12C992.364,1909.84 992.078,1907.58 989.503,1906.1L961.913,1890.16C959.338,1888.68 955.444,1888.51 953.206,1889.81L925.361,1905.88C923.123,1907.16 923.409,1909.42 925.994,1910.92L953.574,1926.83C956.149,1928.33 960.063,1928.49 962.291,1927.19ZM1143.9,1918.98L1171.73,1902.91C1173.96,1901.62 1173.68,1899.37 1171.1,1897.88L1143.53,1881.96C1140.94,1880.47 1137.04,1880.3 1134.8,1881.6L1106.97,1897.67C1104.73,1898.95 1105.02,1901.2 1107.59,1902.7L1135.17,1918.62C1137.76,1920.12 1141.66,1920.28 1143.9,1918.98ZM898.956,1915.45L926.791,1899.38C929.029,1898.09 928.743,1895.83 926.158,1894.35L898.577,1878.41C896.002,1876.92 892.099,1876.77 889.871,1878.06L862.025,1894.13C859.787,1895.42 860.074,1897.68 862.649,1899.16L890.239,1915.09C892.814,1916.57 896.718,1916.73 898.956,1915.45ZM1080.56,1907.23L1108.39,1891.17C1110.62,1889.87 1110.35,1887.61 1107.76,1886.13L1080.19,1870.2C1077.61,1868.72 1073.7,1868.55 1071.47,1869.84L1043.62,1885.91C1041.39,1887.2 1041.68,1889.46 1044.26,1890.95L1071.84,1906.87C1074.42,1908.37 1078.32,1908.52 1080.56,1907.23ZM1005.27,1902.38L1033.12,1886.3C1035.34,1885.02 1035.07,1882.77 1032.49,1881.28L1004.9,1865.35C1002.32,1863.86 998.424,1863.7 996.186,1865L968.35,1881.06C966.113,1882.35 966.399,1884.6 968.984,1886.1L996.554,1902.02C999.139,1903.51 1003.04,1903.67 1005.27,1902.38ZM1272.64,1899.47L1317.15,1873.77C1319.39,1872.49 1319.11,1870.23 1316.52,1868.74L1283.68,1849.77C1281.09,1848.28 1277.19,1848.12 1274.95,1849.4L1230.44,1875.11C1228.2,1876.4 1228.48,1878.65 1231.06,1880.14L1263.91,1899.11C1266.5,1900.61 1270.4,1900.77 1272.64,1899.47ZM1186.88,1894.16L1214.72,1878.1C1216.95,1876.81 1216.67,1874.55 1214.09,1873.07L1186.51,1857.14C1183.93,1855.66 1180.02,1855.48 1177.78,1856.78L1149.96,1872.85C1147.72,1874.13 1148,1876.39 1150.58,1877.88L1178.16,1893.8C1180.74,1895.3 1184.64,1895.46 1186.88,1894.16ZM941.935,1890.62L969.781,1874.56C972.019,1873.26 971.723,1871.01 969.148,1869.52L941.567,1853.59C938.982,1852.11 935.078,1851.95 932.851,1853.24L905.015,1869.31C902.777,1870.6 903.063,1872.86 905.639,1874.35L933.219,1890.27C935.804,1891.76 939.697,1891.91 941.935,1890.62ZM1123.54,1882.42L1151.38,1866.35C1153.62,1865.05 1153.34,1862.8 1150.75,1861.31L1123.17,1845.38C1120.6,1843.89 1116.68,1843.74 1114.45,1845.02L1086.61,1861.1C1084.38,1862.39 1084.66,1864.64 1087.25,1866.13L1114.83,1882.05C1117.4,1883.54 1121.3,1883.71 1123.54,1882.42ZM1048.27,1877.56L1076.1,1861.49C1078.33,1860.2 1078.06,1857.95 1075.47,1856.45L1047.89,1840.53C1045.31,1839.05 1041.41,1838.88 1039.18,1840.17L1011.33,1856.24C1009.1,1857.53 1009.39,1859.79 1011.96,1861.28L1039.54,1877.2C1042.13,1878.69 1046.03,1878.85 1048.27,1877.56ZM1229.87,1869.34L1257.7,1853.28C1259.93,1851.99 1259.65,1849.73 1257.07,1848.25L1229.5,1832.32C1226.91,1830.84 1223.01,1830.66 1220.77,1831.96L1192.95,1848.02C1190.71,1849.31 1190.98,1851.57 1193.56,1853.06L1221.14,1868.98C1223.73,1870.48 1227.63,1870.64 1229.87,1869.34ZM984.925,1865.81L1012.76,1849.74C1015,1848.44 1014.71,1846.19 1012.13,1844.7L984.557,1828.77C981.972,1827.29 978.068,1827.14 975.841,1828.41L948.005,1844.5C945.767,1845.79 946.053,1848.03 948.628,1849.53L976.209,1865.46C978.794,1866.94 982.697,1867.09 984.925,1865.81ZM1332.3,1865.02L1360.13,1848.95C1362.37,1847.67 1362.09,1845.42 1359.52,1843.92L1326.66,1824.96C1324.08,1823.46 1320.18,1823.3 1317.94,1824.58L1290.11,1840.67C1287.87,1841.95 1288.14,1844.2 1290.73,1845.69L1323.58,1864.66C1326.17,1866.15 1330.07,1866.32 1332.3,1865.02ZM1166.53,1857.6L1194.36,1841.54C1196.59,1840.24 1196.32,1837.98 1193.74,1836.5L1166.16,1820.57C1163.58,1819.07 1159.67,1818.92 1157.44,1820.21L1129.6,1836.28C1127.37,1837.57 1127.65,1839.83 1130.22,1841.31L1157.8,1857.24C1160.39,1858.72 1164.29,1858.89 1166.53,1857.6ZM1091.25,1852.73L1119.09,1836.67C1121.32,1835.38 1121.05,1833.12 1118.46,1831.64L1090.87,1815.71C1088.3,1814.23 1084.39,1814.06 1082.16,1815.35L1054.32,1831.42C1052.09,1832.71 1052.37,1834.96 1054.95,1836.46L1082.53,1852.38C1085.11,1853.88 1089.01,1854.03 1091.25,1852.73ZM1272.85,1844.52L1300.69,1828.45C1302.92,1827.17 1302.64,1824.92 1300.06,1823.43L1272.48,1807.5C1269.9,1806.01 1266,1805.84 1263.76,1807.14L1235.93,1823.21C1233.69,1824.5 1233.96,1826.75 1236.55,1828.25L1264.14,1844.16C1266.7,1845.66 1270.62,1845.82 1272.85,1844.52ZM1027.9,1840.99L1055.75,1824.93C1057.99,1823.63 1057.7,1821.37 1055.12,1819.89L1027.54,1803.96C1024.96,1802.47 1021.05,1802.32 1018.82,1803.6L990.985,1819.68C988.747,1820.96 989.033,1823.22 991.618,1824.7L1019.2,1840.63C1021.77,1842.12 1025.68,1842.28 1027.9,1840.99ZM1375.29,1840.21L1403.12,1824.14C1405.36,1822.85 1405.08,1820.6 1402.5,1819.09L1369.65,1800.14C1367.06,1798.64 1363.16,1798.48 1360.92,1799.77L1333.1,1815.85C1330.86,1817.13 1331.13,1819.39 1333.72,1820.87L1366.57,1839.85C1369.16,1841.33 1373.06,1841.5 1375.29,1840.21ZM1209.52,1832.78L1237.35,1816.71C1239.58,1815.42 1239.31,1813.16 1236.72,1811.68L1209.14,1795.75C1206.57,1794.26 1202.66,1794.1 1200.43,1795.39L1172.59,1811.46C1170.35,1812.75 1170.63,1815.01 1173.21,1816.5L1200.79,1832.42C1203.37,1833.9 1207.28,1834.07 1209.52,1832.78ZM1135.3,1827.31L1163.14,1811.24C1165.37,1809.95 1165.09,1807.69 1162.52,1806.2L1134.93,1790.28C1132.35,1788.8 1128.45,1788.62 1126.21,1789.92L1098.38,1805.98C1096.14,1807.28 1096.42,1809.53 1099.01,1811.02L1126.59,1826.94C1129.17,1828.43 1133.07,1828.6 1135.3,1827.31ZM1316.65,1819.24L1398.64,1771.9C1400.87,1770.62 1400.59,1768.36 1398,1766.88L1370.43,1750.95C1367.85,1749.46 1363.95,1749.3 1361.71,1750.59L1279.73,1797.92C1277.5,1799.21 1277.77,1801.47 1280.36,1802.95L1307.94,1818.88C1310.52,1820.36 1314.42,1820.53 1316.65,1819.24ZM1070.89,1816.17L1098.73,1800.11C1100.97,1798.81 1100.68,1796.55 1098.11,1795.07L1070.53,1779.14C1067.94,1777.66 1064.04,1777.49 1061.81,1778.78L1033.97,1794.86C1031.74,1796.14 1032.02,1798.4 1034.6,1799.89L1062.18,1815.81C1064.76,1817.3 1068.67,1817.46 1070.89,1816.17ZM1418.28,1815.38L1446.11,1799.32C1448.35,1798.03 1448.08,1795.78 1445.49,1794.28L1412.64,1775.32C1410.05,1773.83 1406.15,1773.66 1403.91,1774.95L1376.08,1791.02C1373.84,1792.31 1374.12,1794.57 1376.7,1796.06L1409.56,1815.03C1412.14,1816.51 1416.04,1816.68 1418.28,1815.38ZM1253.13,1807.59L1280.98,1791.52C1283.22,1790.23 1282.93,1787.98 1280.35,1786.49L1252.77,1770.56C1250.19,1769.07 1246.28,1768.91 1244.05,1770.2L1216.21,1786.27C1213.98,1787.56 1214.26,1789.82 1216.85,1791.31L1244.43,1807.23C1247,1808.72 1250.91,1808.88 1253.13,1807.59ZM1179.37,1801.88L1207.19,1785.8C1209.43,1784.5 1209.15,1782.26 1206.57,1780.76L1178.99,1764.84C1176.41,1763.35 1172.51,1763.2 1170.27,1764.49L1142.44,1780.55C1140.21,1781.85 1140.48,1784.11 1143.06,1785.59L1170.64,1801.52C1173.22,1803 1177.13,1803.16 1179.37,1801.88ZM1014.62,1797.88L1042.46,1781.81C1044.69,1780.52 1044.41,1778.26 1041.83,1776.78L1032.71,1771.51C1030.13,1770.01 1026.22,1769.86 1023.99,1771.15L996.155,1787.22C993.918,1788.51 994.204,1790.77 996.779,1792.25L1005.89,1797.52C1008.48,1799.02 1012.38,1799.17 1014.62,1797.88ZM1113.88,1791.35L1141.72,1775.29C1143.96,1773.99 1143.67,1771.73 1141.1,1770.25L1113.51,1754.33C1110.93,1752.84 1107.03,1752.67 1104.8,1753.96L1076.95,1770.04C1074.72,1771.33 1075,1773.58 1077.59,1775.07L1105.17,1790.99C1107.74,1792.49 1111.66,1792.65 1113.88,1791.35ZM1296.84,1782.37L1356.79,1747.75C1359.03,1746.46 1358.74,1744.2 1356.16,1742.72L1328.58,1726.79C1326,1725.31 1322.1,1725.14 1319.87,1726.43L1259.91,1761.04C1257.68,1762.34 1257.96,1764.59 1260.54,1766.08L1288.12,1781.99C1290.7,1783.49 1294.6,1783.65 1296.84,1782.37ZM1223.42,1776.44L1251.25,1760.36C1253.49,1759.07 1253.21,1756.82 1250.62,1755.33L1223.04,1739.4C1220.46,1737.92 1216.56,1737.75 1214.32,1739.04L1186.49,1755.13C1184.25,1756.4 1184.53,1758.66 1187.11,1760.15L1214.7,1776.07C1217.28,1777.57 1221.18,1777.72 1223.42,1776.44ZM1057.21,1773.28L1085.05,1757.22C1087.29,1755.93 1087.01,1753.67 1084.42,1752.19L1075.31,1746.92C1072.72,1745.43 1068.82,1745.28 1066.58,1746.56L1038.75,1762.63C1036.51,1763.92 1036.8,1766.17 1039.37,1767.66L1048.5,1772.93C1051.07,1774.42 1054.98,1774.58 1057.21,1773.28ZM1156.66,1766.66L1184.5,1750.59C1186.72,1749.3 1186.45,1747.04 1183.86,1745.55L1156.29,1729.64C1153.71,1728.15 1149.8,1727.98 1147.57,1729.27L1119.73,1745.35C1117.5,1746.62 1117.78,1748.88 1120.35,1750.38L1147.93,1766.3C1150.52,1767.79 1154.42,1767.96 1156.66,1766.66ZM1266.3,1751.68L1314.95,1723.59C1317.18,1722.3 1316.91,1720.05 1314.32,1718.56L1286.73,1702.63C1284.16,1701.14 1280.26,1700.99 1278.03,1702.28L1229.37,1730.37C1227.13,1731.65 1227.41,1733.9 1230,1735.39L1257.58,1751.31C1260.15,1752.81 1264.07,1752.97 1266.3,1751.68ZM1099.8,1748.7L1127.64,1732.62C1129.88,1731.34 1129.6,1729.09 1127.02,1727.59L1117.9,1722.33C1115.32,1720.83 1111.41,1720.68 1109.17,1721.98L1081.35,1738.04C1079.11,1739.33 1079.39,1741.58 1081.96,1743.07L1091.09,1748.34C1093.67,1749.82 1097.58,1749.99 1099.8,1748.7ZM1199.42,1741.97L1227.26,1725.89C1229.5,1724.6 1229.22,1722.35 1226.65,1720.86L1199.06,1704.93C1196.47,1703.45 1192.58,1703.29 1190.34,1704.57L1162.51,1720.64C1160.27,1721.93 1160.55,1724.19 1163.13,1725.69L1190.71,1741.61C1193.29,1743.1 1197.2,1743.25 1199.42,1741.97ZM1142.39,1724.11L1170.24,1708.03C1172.47,1706.74 1172.18,1704.49 1169.62,1703L1160.49,1697.73C1157.92,1696.25 1154,1696.08 1151.77,1697.37L1123.94,1713.45C1121.7,1714.73 1121.98,1716.99 1124.56,1718.48L1133.68,1723.74C1136.26,1725.24 1140.17,1725.39 1142.39,1724.11ZM1242.2,1717.27L1270.04,1701.2C1272.26,1699.9 1271.99,1697.67 1269.41,1696.16L1241.83,1680.24C1239.25,1678.75 1235.34,1678.59 1233.11,1679.88L1205.28,1695.95C1203.04,1697.25 1203.32,1699.5 1205.9,1700.99L1233.48,1716.91C1236.06,1718.4 1239.96,1718.56 1242.2,1717.27ZM1198.22,1691.87L1226.06,1675.81C1228.29,1674.52 1228.01,1672.26 1225.42,1670.78L1216.32,1665.51C1213.73,1664.02 1209.83,1663.86 1207.59,1665.15L1179.75,1681.21C1177.53,1682.51 1177.8,1684.76 1180.38,1686.25L1189.5,1691.51C1192.08,1693.02 1195.99,1693.17 1198.22,1691.87Z" style="fill:rgb(142,187,229);fill-rule:nonzero;"/></g><g id="path29538" transform="matrix(-0.355556,0,0,-0.355556,3859.9,1970.64)"><path d="M2057.9,3418.89L1989.48,3458.39L1992.4,3473.12L2060.82,3433.62L2057.9,3418.89" style="fill:rgb(217,239,251);fill-rule:nonzero;"/></g><g id="path72870" transform="matrix(-0.499623,0,0,-0.499623,4344.82,2406.68)"><path d="M2196.86,3346.19L2127.89,3386C2121.78,3389.53 2118.15,3398.26 2119.76,3405.5L2134.76,3472.89C2136.37,3480.14 2142.63,3483.16 2148.74,3479.63L2217.71,3439.81C2223.81,3436.29 2227.45,3427.55 2225.83,3420.31L2210.83,3352.93C2209.22,3345.68 2202.96,3342.66 2196.86,3346.19" style="fill:rgb(234,72,124);fill-rule:nonzero;"/></g><g id="path72872" transform="matrix(-0.499623,0,0,-0.499623,4344.82,2406.68)"><path d="M2317.16,3276.72L2248.19,3316.55C2242.08,3320.07 2238.44,3328.8 2240.06,3336.05L2255.06,3403.43C2256.67,3410.68 2262.93,3413.7 2269.04,3410.17L2338,3370.36C2344.12,3366.83 2347.75,3358.1 2346.14,3350.86L2331.14,3283.47C2329.52,3276.23 2323.27,3273.21 2317.16,3276.72" style="fill:rgb(188,229,248);fill-rule:nonzero;"/></g><g transform="matrix(1.39887,-0.826056,0.423284,1.63672,921.731,358.465)"><text x="1338.15px" y="921.275px" style="font-family:'Arial-BoldMT', 'Arial', sans-serif;font-weight:700;font-size:24px;fill:rgb(31,43,85);">32</text></g><g transform="matrix(1.39887,-0.826056,0.423284,1.63672,983.029,323.284)"><text x="1338.15px" y="921.275px" style="font-family:'Arial-BoldMT', 'Arial', sans-serif;font-weight:700;font-size:24px;fill:white;">52</text></g><g id="path72874" transform="matrix(-0.499623,0,0,-0.499623,4344.82,2406.68)"><path d="M2170.2,3226.48L2101.24,3266.29C2095.13,3269.82 2091.49,3278.55 2093.1,3285.8L2108.11,3353.18C2109.72,3360.43 2115.98,3363.44 2122.08,3359.93L2191.05,3320.1C2197.15,3316.58 2200.8,3307.85 2199.18,3300.6L2184.17,3233.22C2182.56,3225.97 2176.31,3222.95 2170.2,3226.48" style="fill:white;fill-rule:nonzero;"/></g><g id="path72876" transform="matrix(-0.499623,0,0,-0.499623,4344.82,2406.68)"><path d="M2290.5,3157.02L2221.54,3196.84C2215.43,3200.37 2211.79,3209.1 2213.4,3216.34L2228.41,3283.73C2230.02,3290.97 2236.28,3293.99 2242.39,3290.46L2311.35,3250.65C2317.46,3247.13 2321.1,3238.39 2319.49,3231.15L2304.48,3163.75C2302.87,3156.51 2296.61,3153.49 2290.5,3157.02" style="fill:rgb(5,131,124);fill-rule:nonzero;"/></g><g transform="matrix(1.39887,-0.826056,0.423284,1.63672,937.843,418.11)"><text x="1338.15px" y="921.275px" style="font-family:'Arial-BoldMT', 'Arial', sans-serif;font-weight:700;font-size:24px;fill:white;">64</text></g><g transform="matrix(1.39887,-0.826056,0.423284,1.63672,995.744,383.053)"><text x="1338.15px" y="921.275px" style="font-family:'Arial-BoldMT', 'Arial', sans-serif;font-weight:700;font-size:24px;fill:rgb(31,43,85);">83</text></g></g><g transform="matrix(0.816805,0,0,0.816805,1239.12,1559.55)"><g transform="matrix(1.24944,0,0,1.08723,-95.3887,-82.782)"><path d="M235.285,773.316L283.426,737.216C304.577,750.369 314.705,759.556 321.895,765.797C330.923,773.633 345.007,762.623 351.756,748.155C358.505,733.687 357.355,704.556 356.839,687.02C356.74,683.661 358.994,673.958 353.944,671.033C347.374,667.226 346.184,702.549 346.184,702.549C346.184,702.549 317.723,684.049 297.599,671.808L301.527,614.794C315.056,607.343 325.256,597.423 332.127,585.033C338.997,572.644 342.232,559.639 341.831,546.017C341.49,534.43 350.7,529.855 345.281,526.023C339.862,522.191 335.603,542.739 326.949,547.811C318.413,552.814 285.636,622.888 284.775,638.683L234.176,606.725C236.764,584.025 241.105,564.557 247.199,548.323C253.293,532.089 262.015,517.022 273.364,503.123C284.713,489.224 297.559,478.071 311.904,469.664C336.444,455.28 354.302,457.493 371.856,466.062C392.681,476.227 424.232,492.677 424.859,513.971C425.749,544.189 413.784,570.814 389.3,603.481C404.362,598.953 383.755,604.906 393.139,614.377C398.879,620.17 440.311,647.733 440.311,647.733C440.311,647.733 407.898,651.733 408.136,659.821C409.026,690.04 423.44,742.664 407.352,773.756C391.264,804.847 369.688,849.507 344.792,864.099C321.2,877.926 281.143,855.793 264.359,836.886C252.194,823.182 238.628,800.822 235.285,773.316ZM603.932,385.707L602.858,454.435C595.74,451.875 558.319,419.521 546.007,431.433C523.935,452.789 493.609,491.893 493.141,518.036C505.017,491.325 515.38,474.64 533.874,463.801C554.739,451.572 572.919,451.587 588.416,463.848C593.625,467.97 639.228,498.368 642.796,504.855C649.843,517.665 612.478,509.994 613.127,532.029C614.165,567.258 626.215,636.634 611.194,667.1C596.172,697.566 583.922,725.866 559.382,740.249C533.064,755.675 484.457,712.447 466.709,695.374C448.96,678.301 439.18,638.998 437.367,577.465C435.508,514.366 443,463.705 459.843,425.482C476.686,387.259 499.215,359.879 527.43,343.341C547.229,331.738 563.834,329.451 577.247,336.482C586.376,341.268 630.858,367.744 635.802,381.219C638.121,387.541 602.534,377.473 603.932,385.707ZM494.898,596.068C495.53,617.519 499.752,631.888 507.564,639.175C515.377,646.462 524.084,647.291 533.687,641.663C542.934,636.243 551.948,627.508 556.382,613.787C563.083,593.052 564.399,578.401 557.895,558.284C551.004,536.97 539.199,569.091 532.253,562.57C525.308,556.049 537.44,511.166 527.482,517.003C517.879,522.631 509.905,532.362 503.559,546.195C497.213,560.029 494.326,576.653 494.898,596.068Z" style="fill:rgb(78,101,155);fill-rule:nonzero;"/></g><g transform="matrix(18.9597,-9.66976,0.737715,21.7895,-25807.7,-6232.26)"><text x="1338.15px" y="921.275px" style="font-family:'Arial-BoldMT', 'Arial', sans-serif;font-weight:700;font-size:24px;fill:rgb(112,154,210);">36</text></g></g></g><g transform="matrix(0.93099,-0.53719,0.583321,0.30709,-1519.61,2156.04)"><rect x="1013.86" y="2135.11" width="1177.78" height="29.628" style="fill:white;fill-opacity:0.4;"/></g><g transform="matrix(0.364739,-0.191898,0.0335445,0.602344,572.132,378.486)"><rect x="899.203" y="588.998" width="408.116" height="44.154" style="fill:white;"/></g><g transform="matrix(0.364739,-0.191898,0.0335445,0.602344,167.971,201.378)"><rect x="899.203" y="588.998" width="408.116" height="44.154" style="fill:white;"/></g></g></g></g><defs><linearGradient id="_Linear2" x1="0" y1="0" x2="1" y2="0" gradientUnits="userSpaceOnUse" gradientTransform="matrix(115.207,-531.838,531.838,115.207,1654.75,1712.73)"><stop offset="0" style="stop-color:rgb(30,113,158);stop-opacity:0"/><stop offset="1" style="stop-color:rgb(30,113,158);stop-opacity:1"/></linearGradient><linearGradient id="_Linear3" x1="0" y1="0" x2="1" y2="0" gradientUnits="userSpaceOnUse" gradientTransform="matrix(31.1859,-384.156,384.156,31.1859,2025.71,1605.05)"><stop offset="0" style="stop-color:rgb(30,113,158);stop-opacity:0"/><stop offset="1" style="stop-color:rgb(30,113,158);stop-opacity:1"/></linearGradient><linearGradient id="_Linear4" x1="0" y1="0" x2="1" y2="0" gradientUnits="userSpaceOnUse" gradientTransform="matrix(6.03761,-279.878,279.878,6.03761,2361.02,1401.19)"><stop offset="0" style="stop-color:rgb(30,113,158);stop-opacity:0"/><stop offset="1" style="stop-color:rgb(30,113,158);stop-opacity:1"/></linearGradient><linearGradient id="_Linear5" x1="0" y1="0" x2="1" y2="0" gradientUnits="userSpaceOnUse" gradientTransform="matrix(-252.541,717.692,-717.692,-252.541,2086.81,3156.76)"><stop offset="0" style="stop-color:white;stop-opacity:0"/><stop offset="1" style="stop-color:white;stop-opacity:1"/></linearGradient><linearGradient id="_Linear6" x1="0" y1="0" x2="1" y2="0" gradientUnits="userSpaceOnUse" gradientTransform="matrix(-214.064,759.009,-759.009,-214.064,1828.01,2739.74)"><stop offset="0" style="stop-color:white;stop-opacity:0"/><stop offset="1" style="stop-color:white;stop-opacity:1"/></linearGradient></defs></svg>